<svg id="Layer_1" data-name="Layer 1" xmlns="http://www.w3.org/2000/svg" viewBox="0 0 132.64 104.79"><defs><style>.cls-1{fill:#1a2857;}.cls-2{fill:#6d6e71;}</style></defs><title>ACIC Logo</title><path class="cls-1" d="M17.21,74.29h1.1a.57.57,0,0,1,.26,0,.28.28,0,0,1,.09.23.29.29,0,0,1-.08.23.43.43,0,0,1-.27.06h-1.1v1c0,.07,0,.09.08.09h1.2a.4.4,0,0,1,.25.06c.06,0,.08.11.08.22a.29.29,0,0,1-.07.23.43.43,0,0,1-.26.06H17.08a.48.48,0,0,1-.35-.12.43.43,0,0,1-.14-.34V73.3a.46.46,0,0,1,.53-.51H18.5a.52.52,0,0,1,.25,0,.29.29,0,0,1,.07.23c0,.12,0,.2-.08.23a.38.38,0,0,1-.24.06H17.31l-.07,0a.11.11,0,0,0,0,.08Z" transform="translate(-9.18 -9.1)"/><path class="cls-1" d="M21.79,76.3a.22.22,0,0,1-.07.19.37.37,0,0,1-.23.06.38.38,0,0,1-.24-.06.26.26,0,0,1-.07-.19V74.8a.64.64,0,0,0-.13-.42.48.48,0,0,0-.38-.15.58.58,0,0,0-.46.2A.89.89,0,0,0,20,75V76.3a.22.22,0,0,1-.07.19.43.43,0,0,1-.24.06.34.34,0,0,1-.22-.06.2.2,0,0,1-.08-.19V73.92a.22.22,0,0,1,.07-.19.45.45,0,0,1,.23-.06.34.34,0,0,1,.24.07.2.2,0,0,1,.07.18v.18a.9.9,0,0,1,.82-.43.87.87,0,0,1,.68.28,1,1,0,0,1,.25.75Z" transform="translate(-9.18 -9.1)"/><path class="cls-1" d="M24.86,76.26a1.47,1.47,0,0,1-.35,1,1.34,1.34,0,0,1-1,.37,1.77,1.77,0,0,1-.64-.14c-.22-.08-.34-.2-.34-.34a.32.32,0,0,1,.08-.21.23.23,0,0,1,.18-.09.34.34,0,0,1,.16,0l.32.15a.82.82,0,0,0,.28,0,.66.66,0,0,0,.52-.21.91.91,0,0,0,.18-.61v-.13a.81.81,0,0,1-.76.39,1,1,0,0,1-.82-.39,1.69,1.69,0,0,1-.3-1.06,1.62,1.62,0,0,1,.32-1,1,1,0,0,1,.86-.39.8.8,0,0,1,.7.36v-.1c0-.17.11-.26.31-.26s.3.09.3.26Zm-.61-1.37a.7.7,0,0,0-.17-.48.56.56,0,0,0-.44-.2.58.58,0,0,0-.49.25,1.14,1.14,0,0,0-.17.65,1.09,1.09,0,0,0,.18.67.56.56,0,0,0,.48.24.5.5,0,0,0,.44-.2.67.67,0,0,0,.17-.48Z" transform="translate(-9.18 -9.1)"/><path class="cls-1" d="M27.33,76.16a.79.79,0,0,1-.76.4,1,1,0,0,1-.81-.39,2,2,0,0,1,0-2.11,1,1,0,0,1,.86-.39.79.79,0,0,1,.71.36v-.1c0-.17.1-.26.31-.26a.37.37,0,0,1,.23.07.26.26,0,0,1,.07.19V76.3a.26.26,0,0,1-.07.19.35.35,0,0,1-.24.06c-.2,0-.3-.08-.3-.23Zm0-1.27a.7.7,0,0,0-.17-.48.54.54,0,0,0-.44-.2.55.55,0,0,0-.48.25,1.07,1.07,0,0,0-.18.65,1.09,1.09,0,0,0,.18.67.55.55,0,0,0,.48.24.5.5,0,0,0,.44-.2.72.72,0,0,0,.17-.48Z" transform="translate(-9.18 -9.1)"/><path class="cls-1" d="M31,76.26a1.47,1.47,0,0,1-.34,1,1.35,1.35,0,0,1-1,.37,1.72,1.72,0,0,1-.64-.14c-.23-.08-.34-.2-.34-.34a.32.32,0,0,1,.08-.21.23.23,0,0,1,.18-.09.34.34,0,0,1,.16,0l.32.15a.79.79,0,0,0,.28,0,.64.64,0,0,0,.52-.21.91.91,0,0,0,.18-.61v-.13a.82.82,0,0,1-.76.39,1,1,0,0,1-.82-.39,1.69,1.69,0,0,1-.31-1.06,1.57,1.57,0,0,1,.33-1,1,1,0,0,1,.86-.39.78.78,0,0,1,.7.36v-.1c0-.17.1-.26.31-.26s.29.09.29.26Zm-.6-1.37a.7.7,0,0,0-.17-.48.56.56,0,0,0-.45-.2.58.58,0,0,0-.48.25,1.14,1.14,0,0,0-.17.65,1.09,1.09,0,0,0,.18.67.54.54,0,0,0,.47.24.52.52,0,0,0,.45-.2.72.72,0,0,0,.17-.48Z" transform="translate(-9.18 -9.1)"/><path class="cls-1" d="M32.24,75.34a.81.81,0,0,0,.23.51A.69.69,0,0,0,33,76a.9.9,0,0,0,.31,0,1.11,1.11,0,0,0,.28-.15.35.35,0,0,1,.18,0,.25.25,0,0,1,.18.08.26.26,0,0,1,.09.19c0,.12-.11.24-.33.35a1.54,1.54,0,0,1-.71.16,1.25,1.25,0,0,1-1-.38,1.48,1.48,0,0,1-.36-1A1.57,1.57,0,0,1,32,74.07a1.16,1.16,0,0,1,.94-.4,1.13,1.13,0,0,1,.87.34,1.31,1.31,0,0,1,.33.93.46.46,0,0,1-.08.31.38.38,0,0,1-.28.09Zm1.25-.52a.74.74,0,0,0-.18-.44.55.55,0,0,0-.41-.17.65.65,0,0,0-.43.16.74.74,0,0,0-.22.45Z" transform="translate(-9.18 -9.1)"/><path class="cls-1" d="M36.52,72.42v5c0,.13,0,.21-.07.25a.33.33,0,0,1-.23.06.31.31,0,0,1-.21-.06.36.36,0,0,1-.06-.25v-5a.33.33,0,0,1,0-.22.39.39,0,0,1,.46,0A.37.37,0,0,1,36.52,72.42Z" transform="translate(-9.18 -9.1)"/><path class="cls-1" d="M39.27,74.29h1.11a.52.52,0,0,1,.25,0,.25.25,0,0,1,.09.23.29.29,0,0,1-.08.23.41.41,0,0,1-.26.06H39.27v1c0,.07,0,.09.09.09h1.19a.4.4,0,0,1,.25.06c.06,0,.09.11.09.22a.29.29,0,0,1-.08.23.41.41,0,0,1-.26.06h-1.4a.49.49,0,0,1-.36-.12.43.43,0,0,1-.14-.34V73.3a.46.46,0,0,1,.53-.51h1.38a.49.49,0,0,1,.25,0,.29.29,0,0,1,.08.23c0,.12,0,.2-.08.23a.4.4,0,0,1-.25.06H39.37l-.06,0a.09.09,0,0,0,0,.08Z" transform="translate(-9.18 -9.1)"/><path class="cls-1" d="M43.19,76.17a.8.8,0,0,1-.76.39,1,1,0,0,1-.81-.39,1.63,1.63,0,0,1-.31-1.06,1.57,1.57,0,0,1,.32-1,1,1,0,0,1,.86-.39.91.91,0,0,1,.41.09.69.69,0,0,1,.29.27V72.66a.22.22,0,0,1,.07-.19.38.38,0,0,1,.24-.06.33.33,0,0,1,.23.06.26.26,0,0,1,.07.19V76.3a.26.26,0,0,1-.07.19.32.32,0,0,1-.23.06c-.21,0-.31-.08-.31-.23Zm0-1.28a.7.7,0,0,0-.17-.48.58.58,0,0,0-.92,0,1.07,1.07,0,0,0-.18.65,1.11,1.11,0,0,0,.18.67.56.56,0,0,0,.48.24.55.55,0,0,0,.45-.2.77.77,0,0,0,.16-.48Z" transform="translate(-9.18 -9.1)"/><path class="cls-1" d="M46.92,76.3a.22.22,0,0,1-.07.19.37.37,0,0,1-.24.06.35.35,0,0,1-.23-.06.26.26,0,0,1-.07-.19v-.17a.89.89,0,0,1-.81.43.87.87,0,0,1-.68-.28,1.08,1.08,0,0,1-.26-.76V73.93c0-.17.1-.26.31-.26a.33.33,0,0,1,.23.07.22.22,0,0,1,.07.19v1.52a.63.63,0,0,0,.14.42.49.49,0,0,0,.38.15.57.57,0,0,0,.46-.2.91.91,0,0,0,.16-.58V73.93c0-.17.11-.26.31-.26a.33.33,0,0,1,.23.07.22.22,0,0,1,.07.19Z" transform="translate(-9.18 -9.1)"/><path class="cls-1" d="M49.86,74.2a.3.3,0,0,1-.1.2.25.25,0,0,1-.19.09.34.34,0,0,1-.23-.1.88.88,0,0,0-.51-.18.6.6,0,0,0-.51.24,1,1,0,0,0-.19.66,1,1,0,0,0,.2.66.58.58,0,0,0,.5.25.79.79,0,0,0,.51-.19.49.49,0,0,1,.22-.09.33.33,0,0,1,.21.09.3.3,0,0,1,.09.19c0,.13-.1.25-.3.37a1.54,1.54,0,0,1-.75.17,1.17,1.17,0,0,1-.93-.4,1.73,1.73,0,0,1,0-2.11,1.25,1.25,0,0,1,1-.38,1.36,1.36,0,0,1,.71.17C49.76,74,49.86,74.08,49.86,74.2Z" transform="translate(-9.18 -9.1)"/><path class="cls-1" d="M52.06,76.16a.78.78,0,0,1-.75.4,1,1,0,0,1-.82-.39,1.63,1.63,0,0,1-.31-1.06,1.57,1.57,0,0,1,.33-1,1,1,0,0,1,.85-.39.76.76,0,0,1,.7.36v-.1c0-.17.11-.26.32-.26a.32.32,0,0,1,.22.07.22.22,0,0,1,.07.19V76.3a.25.25,0,0,1-.06.19.37.37,0,0,1-.24.06c-.2,0-.31-.08-.31-.23Zm0-1.27a.7.7,0,0,0-.16-.48.56.56,0,0,0-.44-.2.57.57,0,0,0-.49.25,1.07,1.07,0,0,0-.17.65,1.09,1.09,0,0,0,.17.67.58.58,0,0,0,.49.24.56.56,0,0,0,.45-.2.76.76,0,0,0,.15-.48Z" transform="translate(-9.18 -9.1)"/><path class="cls-1" d="M54.2,74.23V75.7a.36.36,0,0,0,.07.22.19.19,0,0,0,.18.09.47.47,0,0,0,.16,0,.92.92,0,0,1,.2,0A.18.18,0,0,1,55,76a.26.26,0,0,1,.07.2.22.22,0,0,1-.1.2,1.07,1.07,0,0,1-.26.11,1,1,0,0,1-.31,0,.74.74,0,0,1-.57-.2,1,1,0,0,1-.19-.65V74.23h-.2a.32.32,0,0,1-.2,0,.26.26,0,0,1-.07-.21.29.29,0,0,1,.06-.2.36.36,0,0,1,.21,0h.2v-.57a.25.25,0,0,1,.06-.19.51.51,0,0,1,.48,0,.25.25,0,0,1,.06.19v.57h.51c.1,0,.16,0,.19.06A.24.24,0,0,1,55,74a.27.27,0,0,1-.06.2.25.25,0,0,1-.19.06Z" transform="translate(-9.18 -9.1)"/><path class="cls-1" d="M56,75.34a.81.81,0,0,0,.23.51.71.71,0,0,0,.49.17.87.87,0,0,0,.3,0,1.35,1.35,0,0,0,.29-.15.3.3,0,0,1,.17,0,.27.27,0,0,1,.27.27c0,.12-.11.24-.32.35a1.6,1.6,0,0,1-.73.16,1.24,1.24,0,0,1-1-.38,1.48,1.48,0,0,1-.36-1,1.57,1.57,0,0,1,.35-1.07,1.18,1.18,0,0,1,1-.4,1.15,1.15,0,0,1,.87.34,1.35,1.35,0,0,1,.32.93.46.46,0,0,1-.08.31.37.37,0,0,1-.27.09Zm1.25-.52a.63.63,0,0,0-.18-.44.54.54,0,0,0-.4-.17.66.66,0,0,0-.44.16.8.8,0,0,0-.22.45Z" transform="translate(-9.18 -9.1)"/><path class="cls-1" d="M60.24,72.42v5a.36.36,0,0,1-.06.25.37.37,0,0,1-.23.06.34.34,0,0,1-.22-.06.36.36,0,0,1-.06-.25v-5a.4.4,0,0,1,0-.22.31.31,0,0,1,.25-.08.3.3,0,0,1,.22.07A.37.37,0,0,1,60.24,72.42Z" transform="translate(-9.18 -9.1)"/><path class="cls-1" d="M63,74.29h1.1a.52.52,0,0,1,.25,0,.25.25,0,0,1,.09.23.29.29,0,0,1-.08.23.39.39,0,0,1-.26.06H63v1c0,.07,0,.09.08.09h1.19a.45.45,0,0,1,.26.06.25.25,0,0,1,.08.22.33.33,0,0,1-.07.23.45.45,0,0,1-.27.06h-1.4a.51.51,0,0,1-.36-.12.42.42,0,0,1-.13-.34V73.3a.45.45,0,0,1,.52-.51h1.38a.54.54,0,0,1,.26,0,.33.33,0,0,1,.07.23c0,.12,0,.2-.08.23a.4.4,0,0,1-.25.06H63.09l-.07,0a.19.19,0,0,0,0,.08Z" transform="translate(-9.18 -9.1)"/><path class="cls-1" d="M67.36,74.15a.93.93,0,0,1,.88-.48.81.81,0,0,1,.66.27,1.07,1.07,0,0,1,.25.76v1.6c0,.17-.1.25-.3.25a.37.37,0,0,1-.24-.06.22.22,0,0,1-.07-.19V74.79a.63.63,0,0,0-.12-.41.43.43,0,0,0-.35-.15.53.53,0,0,0-.43.19.91.91,0,0,0-.15.56V76.3c0,.17-.1.25-.3.25a.35.35,0,0,1-.24-.06.22.22,0,0,1-.07-.19V74.79a.63.63,0,0,0-.12-.41.43.43,0,0,0-.35-.15.53.53,0,0,0-.43.19.91.91,0,0,0-.15.56V76.3c0,.17-.11.25-.32.25s-.29-.08-.29-.25V73.92a.25.25,0,0,1,.06-.19.46.46,0,0,1,.24-.06.38.38,0,0,1,.24.07.2.2,0,0,1,.07.18v.18a.86.86,0,0,1,.77-.43A.77.77,0,0,1,67.36,74.15Z" transform="translate(-9.18 -9.1)"/><path class="cls-1" d="M70.52,77.43a.19.19,0,0,1-.08.18.4.4,0,0,1-.24.06A.29.29,0,0,1,70,77.6a.25.25,0,0,1-.06-.19V73.93a.23.23,0,0,1,.08-.19.34.34,0,0,1,.22-.07.33.33,0,0,1,.23.07.2.2,0,0,1,.08.19V74a.69.69,0,0,1,.29-.27,1,1,0,0,1,.42-.09,1.08,1.08,0,0,1,.86.39,1.64,1.64,0,0,1,.32,1,1.69,1.69,0,0,1-.31,1.06,1,1,0,0,1-.82.39.79.79,0,0,1-.76-.39Zm0-2.09a.72.72,0,0,0,.17.48.5.5,0,0,0,.44.2.58.58,0,0,0,.49-.24,1.16,1.16,0,0,0,.17-.67,1.2,1.2,0,0,0-.17-.66.61.61,0,0,0-.93,0,.73.73,0,0,0-.17.49Z" transform="translate(-9.18 -9.1)"/><path class="cls-1" d="M74.12,76.56a1.19,1.19,0,0,1-1-.4,1.75,1.75,0,0,1,0-2.1,1.21,1.21,0,0,1,1-.39,1.25,1.25,0,0,1,1,.39,1.79,1.79,0,0,1,0,2.11A1.23,1.23,0,0,1,74.12,76.56Zm0-2.35a.65.65,0,0,0-.53.25,1.16,1.16,0,0,0-.17.65,1.12,1.12,0,0,0,.18.66.63.63,0,0,0,.52.25.61.61,0,0,0,.52-.24,1.09,1.09,0,0,0,.18-.67,1.05,1.05,0,0,0-.18-.67A.61.61,0,0,0,74.12,74.21Z" transform="translate(-9.18 -9.1)"/><path class="cls-1" d="M77.68,74.85a9.83,9.83,0,0,1-.28,1l-.21.47a.55.55,0,0,1-.11.17.37.37,0,0,1-.23.07l-.18,0a.52.52,0,0,1-.15-.17,2.36,2.36,0,0,1-.19-.39,5.2,5.2,0,0,1-.21-.55c-.06-.18-.13-.42-.21-.71s-.12-.49-.14-.59a1.43,1.43,0,0,1,0-.23.2.2,0,0,1,.1-.16.4.4,0,0,1,.24-.07.27.27,0,0,1,.19,0,.21.21,0,0,1,.08.17c.05.28.09.51.13.68s.09.35.16.57.14.42.22.63c.07-.17.13-.38.2-.62l.18-.66c.06-.2.1-.4.14-.59s.13-.23.32-.23a.28.28,0,0,1,.31.23l.12.57c.06.21.19.64.39,1.3a4.35,4.35,0,0,0,.25-.75c0-.15.09-.33.13-.51s.09-.39.13-.61a.31.31,0,0,1,.1-.19.29.29,0,0,1,.17,0,.36.36,0,0,1,.24.07.17.17,0,0,1,.11.16,1,1,0,0,1,0,.19c0,.09-.05.21-.08.36s-.1.33-.16.56-.14.44-.22.64a4,4,0,0,1-.34.78.35.35,0,0,1-.11.09.36.36,0,0,1-.19,0,.3.3,0,0,1-.24-.07.63.63,0,0,1-.13-.21l-.22-.51A7.61,7.61,0,0,1,77.68,74.85Z" transform="translate(-9.18 -9.1)"/><path class="cls-1" d="M80.55,75.34a.82.82,0,0,0,.24.51.67.67,0,0,0,.48.17.84.84,0,0,0,.3,0,1.62,1.62,0,0,0,.29-.15.33.33,0,0,1,.18,0,.27.27,0,0,1,.26.27c0,.12-.11.24-.33.35a1.51,1.51,0,0,1-.71.16,1.25,1.25,0,0,1-1-.38,1.53,1.53,0,0,1-.36-1,1.57,1.57,0,0,1,.35-1.07,1.2,1.2,0,0,1,1-.4,1.15,1.15,0,0,1,.87.34,1.31,1.31,0,0,1,.33.93.46.46,0,0,1-.09.31.37.37,0,0,1-.27.09Zm1.25-.52a.63.63,0,0,0-.18-.44.53.53,0,0,0-.4-.17.63.63,0,0,0-.43.16.81.81,0,0,0-.23.45Z" transform="translate(-9.18 -9.1)"/><path class="cls-1" d="M83.58,74.08a.71.71,0,0,1,.67-.41.65.65,0,0,1,.33.07.22.22,0,0,1,.13.2.36.36,0,0,1-.07.24.19.19,0,0,1-.16.1l-.14,0a.47.47,0,0,0-.17,0,.49.49,0,0,0-.43.21,1,1,0,0,0-.16.6V76.3a.25.25,0,0,1-.06.19.4.4,0,0,1-.25.06c-.2,0-.3-.08-.3-.25V73.92a.25.25,0,0,1,.07-.18.38.38,0,0,1,.24-.07c.2,0,.3.08.3.25Z" transform="translate(-9.18 -9.1)"/><path class="cls-1" d="M85.28,91.58H62.41L55,81.06h7.72l3.05,4.26a2,2,0,0,0-.41,1.19,2,2,0,1,0,2-2,1.87,1.87,0,0,0-.71.14l-3.18-4.46A.53.53,0,0,0,63,80H36.45a.52.52,0,0,0,0,1H46.63l7.45,10.52H48l-2.6-3.64a1.28,1.28,0,0,0,.21-.7,1.35,1.35,0,0,0-1.35-1.34,1.34,1.34,0,0,0,0,2.68,1.45,1.45,0,0,0,.3,0l2.75,3.85a.52.52,0,0,0,.42.22H85.28a.52.52,0,0,0,.52-.52A.52.52,0,0,0,85.28,91.58Z" transform="translate(-9.18 -9.1)"/><path class="cls-2" d="M126.6,84.67a2.6,2.6,0,0,1-1.37-.37.12.12,0,0,1-.07,0,2.6,2.6,0,0,1-.68-1,.76.76,0,0,1-.24-.2,1.46,1.46,0,0,1-.16-.3.08.08,0,0,0,0,0,2,2,0,0,1-.17-.51,1.92,1.92,0,0,1-.06-.47h0a.6.6,0,0,1-.09-.22v-.15a2.72,2.72,0,0,1-.12-.25l-.06-.14a.59.59,0,0,1,0-.23,2.16,2.16,0,0,1-.15-1.3v0c0-.17.08-.33.13-.48a5.62,5.62,0,0,0,.16-.65.54.54,0,0,1,.24-.38c.11-.15.18-.27.26-.4a2.55,2.55,0,0,1,.29-.44.5.5,0,0,1,.12-.29.61.61,0,0,0,.09-.12.54.54,0,0,1,0-.25.47.47,0,0,1,0-.28.51.51,0,0,1,0-.36,3.68,3.68,0,0,1-.17-.73,2.87,2.87,0,0,0-.09-.49.59.59,0,0,1,0-.13V74a.2.2,0,0,1,0-.07l.05-.33a3,3,0,0,1,.18-.63l0-.08a2.7,2.7,0,0,1,.32-.66,2.53,2.53,0,0,1,.59-.74,2.89,2.89,0,0,1,1.32-.73,7.44,7.44,0,0,1,.74-.14h0l.36-.06a3.92,3.92,0,0,0,.51-.25,1.64,1.64,0,0,0,.35-.36s0,0,0-.06a.11.11,0,0,0,0-.08,0,0,0,0,0,0,0v0s0-.1.06-.2l0-.06a2.08,2.08,0,0,1,.11-.33l0-.05.26-.45a.69.69,0,0,1,.11-.13l.05,0a3.13,3.13,0,0,1,.39-.31,2.67,2.67,0,0,1,.41-.22,1.75,1.75,0,0,1,.91-.8.65.65,0,0,1,.19,0,1.07,1.07,0,0,1,.32.08,1.21,1.21,0,0,1,.57-.06,1.49,1.49,0,0,1,.82.35,3.14,3.14,0,0,1,.93,1.75l0,.14a0,0,0,0,0,0,0,8,8,0,0,1,.14.89h0a.45.45,0,0,0,0,.08v0a2.73,2.73,0,0,0,.07.29s0,0,0,0a4.68,4.68,0,0,1,.08.76.51.51,0,0,1,0,.13l-.07.23a1,1,0,0,1-.15.42,2.22,2.22,0,0,1-.57.7l0,0c0,.19-.08.37-.13.56,0,0,0,.05,0,.07-.15.37-.27.68-.38,1,0,0,0,0,0,0a3.25,3.25,0,0,0-.27.82s0,0,0,0l0,.14c-.12.42-.28.92-.39,1.39A8.28,8.28,0,0,1,132,78a4.82,4.82,0,0,1-.33.71c0,.11-.08.23-.12.37l0,.12a1.74,1.74,0,0,1-.17.48l-.13.27-.1.19a1,1,0,0,1-.15.23l0,0-.1.15a1.54,1.54,0,0,1,0,.17.61.61,0,0,1-.07.14s0,0,0,.06a.77.77,0,0,1-.11.64.7.7,0,0,1-.19.16,2.52,2.52,0,0,0-.13.33c-.08.19-.16.38-.26.59l-.16.33s0,0,0,0l-.19.28,0,.06a1.87,1.87,0,0,1-.41.43s0,0,0,0l-.18.14L129,84l-.17.08,0,0a4.52,4.52,0,0,1-.63.25l-.1,0a4.34,4.34,0,0,1-.48.14l-.2,0A2.8,2.8,0,0,1,126.6,84.67ZM126.48,82l0,0h0a.66.66,0,0,1,.28,0h0l.41,0,.08,0,.09,0a.86.86,0,0,1,.36-.22.76.76,0,0,1,.11-.14c.08-.07.1-.18.15-.43a2,2,0,0,1,.24-.75.5.5,0,0,1,.08-.12.88.88,0,0,1,.07-.28.43.43,0,0,1,.15-.2.81.81,0,0,1,.35-.54l0,0,0,0a1.11,1.11,0,0,1,.17-.39,1.39,1.39,0,0,1,.17-.21h0l0,0h0a.55.55,0,0,1,.19-.45,1.36,1.36,0,0,1,.14-.23s0,0,0-.06a.53.53,0,0,1,.28-.41,1.59,1.59,0,0,1,0-.72,1.18,1.18,0,0,1,.18-.51.41.41,0,0,1,0-.11,2,2,0,0,1,.36-.77.36.36,0,0,1,0-.09c0-.09.1-.23.12-.29a.51.51,0,0,1,.08-.34,1.31,1.31,0,0,1,.07-.19h0a.55.55,0,0,1,0-.22,3.47,3.47,0,0,1,.1-.78,1.78,1.78,0,0,0,.07-.39v0a1.23,1.23,0,0,1,0-.2v-.15a.06.06,0,0,0,0,0l0-.21a.56.56,0,0,1,.12-.27c0-.07.05-.14.09-.22a.08.08,0,0,1,0-.06,2.94,2.94,0,0,1,.57-.68h0a1.19,1.19,0,0,1,0-.45,3.38,3.38,0,0,1-.22-1l-.06.07,0,.06-.24.21a.45.45,0,0,1-.21.12.5.5,0,0,1-.1.37,2.21,2.21,0,0,0-.1.24v0a.77.77,0,0,1,0,.52.62.62,0,0,1-.12.19l-.22.25a3.82,3.82,0,0,1-.42.38s0,0,0,0,0,0,0,0a.54.54,0,0,1-.38.22l0,0a1.8,1.8,0,0,1-.84.57.89.89,0,0,1-.41.07.61.61,0,0,1-.39.15h0a.88.88,0,0,0-.47.16,1.6,1.6,0,0,1-.48.19.25.25,0,0,1,0,.07,3.19,3.19,0,0,0-.11.33.7.7,0,0,1-.13.24.63.63,0,0,1,0,.36,0,0,0,0,1,0,0l0,.09a.49.49,0,0,1,.06.17c0,.14,0,.24.07.35l.13.45a.78.78,0,0,1,0,.22.51.51,0,0,1-.06.25,1,1,0,0,1,.1,1,3.11,3.11,0,0,1-.26.61,1.34,1.34,0,0,1-.06.12.9.9,0,0,1,0,.25.62.62,0,0,1-.17.45,1.68,1.68,0,0,0-.41.61,4.2,4.2,0,0,1-.26.44.53.53,0,0,1,0,.13.54.54,0,0,1-.08.3.78.78,0,0,0,0,.09.49.49,0,0,1,0,.12s0,0,0,0a2.26,2.26,0,0,1,.12.51,1.07,1.07,0,0,1,.07.15l.07.13a.64.64,0,0,1,0,.56.57.57,0,0,1,.22.39A.17.17,0,0,1,126.48,82Z" transform="translate(-9.18 -9.1)"/><path class="cls-1" d="M38,37.4l1.85-4.76h.91l1.84,4.76H41.45l-.38-1.07H39.58l-.37,1.07Zm2.3-3.59-.57,1.76h1.13Z" transform="translate(-9.18 -9.1)"/><path class="cls-1" d="M43.28,37.4V35.1h-.45v-.81h.45v-.41a2.23,2.23,0,0,1,.08-.6,1.11,1.11,0,0,1,.26-.45.93.93,0,0,1,.39-.29,1.19,1.19,0,0,1,.51-.1,2.51,2.51,0,0,1,.93.2l-.2.81a1,1,0,0,0-.24-.08l-.24,0c-.28,0-.41.16-.41.5v.45h.83v.81h-.83v2.3Z" transform="translate(-9.18 -9.1)"/><path class="cls-1" d="M48.13,34.8a2,2,0,0,0-.71.12.91.91,0,0,0-.46.37V37.4H45.88V33.88h1v.71a1.66,1.66,0,0,1,.48-.56,1.18,1.18,0,0,1,.61-.21h.17Z" transform="translate(-9.18 -9.1)"/><path class="cls-1" d="M48.76,33.48v-1h1.09v1Zm0,3.92V33.88h1.09V37.4Z" transform="translate(-9.18 -9.1)"/><path class="cls-1" d="M50.55,35.63a1.8,1.8,0,0,1,.13-.69,1.6,1.6,0,0,1,.37-.58,1.8,1.8,0,0,1,.6-.4,2.09,2.09,0,0,1,.81-.15,2,2,0,0,1,1,.26,1.69,1.69,0,0,1,.63.67l-1.06.32a.68.68,0,0,0-.61-.33.71.71,0,0,0-.57.24.9.9,0,0,0-.23.66,1.12,1.12,0,0,0,.06.38.82.82,0,0,0,.17.29.7.7,0,0,0,.26.19.74.74,0,0,0,.31.07.71.71,0,0,0,.37-.1.67.67,0,0,0,.25-.25l1.06.32a1.62,1.62,0,0,1-.63.67,2,2,0,0,1-1,.27,1.87,1.87,0,0,1-.8-.16,1.85,1.85,0,0,1-.61-.4,1.69,1.69,0,0,1-.37-.58A1.85,1.85,0,0,1,50.55,35.63Z" transform="translate(-9.18 -9.1)"/><path class="cls-1" d="M55.81,37.47a1.3,1.3,0,0,1-.49-.09,1.15,1.15,0,0,1-.4-.24,1.12,1.12,0,0,1-.25-.35,1.1,1.1,0,0,1-.1-.45.94.94,0,0,1,.12-.47A1,1,0,0,1,55,35.5a1.44,1.44,0,0,1,.48-.24,2,2,0,0,1,.62-.09,2,2,0,0,1,.43,0,1.62,1.62,0,0,1,.37.11v-.16c0-.41-.24-.61-.71-.61a1.73,1.73,0,0,0-.56.09,3.1,3.1,0,0,0-.56.3l-.32-.67a2.87,2.87,0,0,1,.73-.35,3.12,3.12,0,0,1,.82-.11,1.8,1.8,0,0,1,1.24.38,1.37,1.37,0,0,1,.44,1.1v.9a.26.26,0,0,0,.07.22.29.29,0,0,0,.21.08v.91l-.28,0h-.24a.76.76,0,0,1-.46-.12.55.55,0,0,1-.19-.33l0-.16a1.68,1.68,0,0,1-.57.46A1.5,1.5,0,0,1,55.81,37.47Zm.32-.78a1,1,0,0,0,.34-.06.72.72,0,0,0,.27-.16.3.3,0,0,0,.16-.25v-.34a1.41,1.41,0,0,0-.31-.08l-.31,0a.81.81,0,0,0-.49.13.41.41,0,0,0-.19.35.42.42,0,0,0,.14.32A.61.61,0,0,0,56.13,36.69Z" transform="translate(-9.18 -9.1)"/><path class="cls-1" d="M60.53,35a2.38,2.38,0,0,1,.16-.86,2.35,2.35,0,0,1,.45-.76,2.43,2.43,0,0,1,.72-.54,2.28,2.28,0,0,1,1-.21A2.15,2.15,0,0,1,64,32.9a1.8,1.8,0,0,1,.7.75l-.85.59a.86.86,0,0,0-.19-.31,1.16,1.16,0,0,0-.25-.2.79.79,0,0,0-.29-.11l-.27,0a1,1,0,0,0-.52.13,1.1,1.1,0,0,0-.35.33,1.57,1.57,0,0,0-.22.45,1.81,1.81,0,0,0-.07.52,1.65,1.65,0,0,0,.09.54A1.19,1.19,0,0,0,62,36a1.1,1.1,0,0,0,.36.32,1,1,0,0,0,.48.12,1,1,0,0,0,.29,0,1.08,1.08,0,0,0,.28-.11.91.91,0,0,0,.24-.2,1.05,1.05,0,0,0,.18-.31l.91.53a1.33,1.33,0,0,1-.31.47,2,2,0,0,1-.47.35,2.22,2.22,0,0,1-.56.21,2.38,2.38,0,0,1-.58.08,2,2,0,0,1-.92-.21,2.22,2.22,0,0,1-.72-.57A2.64,2.64,0,0,1,60.53,35Z" transform="translate(-9.18 -9.1)"/><path class="cls-1" d="M65.33,37.93l.28.06a.86.86,0,0,0,.22,0,.37.37,0,0,0,.29-.13,1.34,1.34,0,0,0,.18-.48L65,33.88h1.12l.83,2.6.71-2.6h1L67.26,38a1.44,1.44,0,0,1-1.33,1l-.3,0a1.63,1.63,0,0,1-.3-.07Z" transform="translate(-9.18 -9.1)"/><path class="cls-1" d="M71.35,37.47a1.43,1.43,0,0,1-.71-.17,1.33,1.33,0,0,1-.48-.49v.59h-1V32.5H70.3v2a1.27,1.27,0,0,1,.47-.48,1.43,1.43,0,0,1,.71-.17,1.25,1.25,0,0,1,.61.15,1.29,1.29,0,0,1,.48.39,1.77,1.77,0,0,1,.33.59,2.07,2.07,0,0,1,.11.71,1.88,1.88,0,0,1-.13.72,1.52,1.52,0,0,1-.35.57,1.55,1.55,0,0,1-.52.39A1.66,1.66,0,0,1,71.35,37.47ZM71,36.56a1,1,0,0,0,.36-.07.83.83,0,0,0,.26-.19.79.79,0,0,0,.18-.29,1,1,0,0,0,.06-.36,1,1,0,0,0-.06-.35.85.85,0,0,0-.17-.31.67.67,0,0,0-.25-.19.66.66,0,0,0-.32-.07.68.68,0,0,0-.47.17,1.08,1.08,0,0,0-.33.43v.74a1,1,0,0,0,.31.36A.89.89,0,0,0,71,36.56Z" transform="translate(-9.18 -9.1)"/><path class="cls-1" d="M75.43,37.47a2.09,2.09,0,0,1-.81-.15,1.94,1.94,0,0,1-.6-.39,1.58,1.58,0,0,1-.38-.58,1.71,1.71,0,0,1-.12-.68,2,2,0,0,1,.12-.72,1.62,1.62,0,0,1,.38-.59,1.71,1.71,0,0,1,.6-.4,2.05,2.05,0,0,1,.81-.15,2,2,0,0,1,.8.15,1.8,1.8,0,0,1,.6.4,1.6,1.6,0,0,1,.37.58,1.76,1.76,0,0,1,.12.69v.18c0,.06,0,.11,0,.16H74.67a.72.72,0,0,0,.26.54.85.85,0,0,0,.53.18,1.07,1.07,0,0,0,.46-.11.64.64,0,0,0,.3-.31l.92.26a1.7,1.7,0,0,1-.66.67A2,2,0,0,1,75.43,37.47Zm.75-2.17a.8.8,0,0,0-.24-.52.78.78,0,0,0-.53-.2.72.72,0,0,0-.52.2.79.79,0,0,0-.24.52Z" transform="translate(-9.18 -9.1)"/><path class="cls-1" d="M80.24,34.8a1.9,1.9,0,0,0-.7.12.89.89,0,0,0-.47.37V37.4H78V33.88h1v.71a1.66,1.66,0,0,1,.48-.56,1.18,1.18,0,0,1,.61-.21h.17Z" transform="translate(-9.18 -9.1)"/><path class="cls-1" d="M19.15,44.1V39.34h1.1V44.1Z" transform="translate(-9.18 -9.1)"/><path class="cls-1" d="M26.88,44.1H25.8v-2a.75.75,0,0,0-.13-.5.38.38,0,0,0-.33-.16.67.67,0,0,0-.42.17,1,1,0,0,0-.3.45v2H23.53v-2a.81.81,0,0,0-.13-.5.38.38,0,0,0-.33-.16.64.64,0,0,0-.42.17.9.9,0,0,0-.31.45v2H21.25V40.58h1v.59a1.28,1.28,0,0,1,.54-.49,1.8,1.8,0,0,1,.79-.17,1.12,1.12,0,0,1,.38.06.73.73,0,0,1,.29.15.8.8,0,0,1,.2.21.68.68,0,0,1,.1.27,1.44,1.44,0,0,1,.53-.51,1.62,1.62,0,0,1,.77-.18,1.05,1.05,0,0,1,.54.13.92.92,0,0,1,.33.32,1.52,1.52,0,0,1,.15.44,3.4,3.4,0,0,1,0,.45Z" transform="translate(-9.18 -9.1)"/><path class="cls-1" d="M33.39,44.1H32.31v-2a.81.81,0,0,0-.13-.5.39.39,0,0,0-.33-.16.69.69,0,0,0-.43.17,1.08,1.08,0,0,0-.3.45v2H30v-2a.81.81,0,0,0-.13-.5.39.39,0,0,0-.33-.16.69.69,0,0,0-.43.17.94.94,0,0,0-.3.45v2H27.76V40.58h1v.59a1.32,1.32,0,0,1,.53-.49,1.8,1.8,0,0,1,.79-.17,1.23,1.23,0,0,1,.39.06.8.8,0,0,1,.29.15,1.34,1.34,0,0,1,.2.21.88.88,0,0,1,.1.27,1.37,1.37,0,0,1,.53-.51,1.62,1.62,0,0,1,.77-.18,1.08,1.08,0,0,1,.54.13.82.82,0,0,1,.32.32,1.1,1.1,0,0,1,.15.44,2.28,2.28,0,0,1,0,.45Z" transform="translate(-9.18 -9.1)"/><path class="cls-1" d="M36,44.17a2.09,2.09,0,0,1-.81-.15,1.64,1.64,0,0,1-.6-.39,1.68,1.68,0,0,1-.38-.57,1.74,1.74,0,0,1-.12-.68,1.88,1.88,0,0,1,.12-.72,1.72,1.72,0,0,1,1-1,2,2,0,0,1,.81-.15,2.12,2.12,0,0,1,.81.15,1.76,1.76,0,0,1,.59.4,1.69,1.69,0,0,1,.37.58,2,2,0,0,1,.13.69c0,.06,0,.13,0,.19s0,.11,0,.15H35.22a.67.67,0,0,0,.26.54.78.78,0,0,0,.53.19,1,1,0,0,0,.46-.12.53.53,0,0,0,.29-.3l.93.25a1.72,1.72,0,0,1-.66.68A2,2,0,0,1,36,44.17ZM36.73,42a.78.78,0,0,0-.25-.53.71.71,0,0,0-.52-.19.73.73,0,0,0-.52.19.8.8,0,0,0-.24.53Z" transform="translate(-9.18 -9.1)"/><path class="cls-1" d="M40.79,41.5a2,2,0,0,0-.71.13.93.93,0,0,0-.46.36V44.1H38.54V40.58h1v.71a1.53,1.53,0,0,1,.48-.55,1.18,1.18,0,0,1,.62-.21h.16Z" transform="translate(-9.18 -9.1)"/><path class="cls-1" d="M42.91,44.17a3.89,3.89,0,0,1-.47,0L42,44.05a3.53,3.53,0,0,1-.46-.15,1.91,1.91,0,0,1-.38-.18l.43-.73a3.13,3.13,0,0,0,.68.31,1.91,1.91,0,0,0,.64.11.76.76,0,0,0,.37-.07.24.24,0,0,0,.12-.22c0-.09-.06-.16-.17-.22a4.18,4.18,0,0,0-.58-.18c-.24-.07-.45-.13-.61-.19a1.42,1.42,0,0,1-.41-.21.64.64,0,0,1-.21-.26.78.78,0,0,1-.07-.35,1,1,0,0,1,.11-.49.92.92,0,0,1,.31-.37,1.36,1.36,0,0,1,.46-.25,1.87,1.87,0,0,1,.59-.09,2.56,2.56,0,0,1,.76.12,3.75,3.75,0,0,1,.76.3l-.42.68a4.2,4.2,0,0,0-.6-.27,1.8,1.8,0,0,0-.5-.08.82.82,0,0,0-.34.07.23.23,0,0,0-.13.22.2.2,0,0,0,0,.13.26.26,0,0,0,.11.09.76.76,0,0,0,.2.08l.32.09a5,5,0,0,1,.67.2,1.8,1.8,0,0,1,.44.22.66.66,0,0,1,.24.29.86.86,0,0,1,.07.38,1,1,0,0,1-.4.83,1.71,1.71,0,0,1-.47.23A2.47,2.47,0,0,1,42.91,44.17Z" transform="translate(-9.18 -9.1)"/><path class="cls-1" d="M45.1,40.18v-1h1.08v1Zm0,3.92V40.58h1.08V44.1Z" transform="translate(-9.18 -9.1)"/><path class="cls-1" d="M48.79,44.17A2,2,0,0,1,48,44a1.85,1.85,0,0,1-.61-.4A1.66,1.66,0,0,1,47,43a1.85,1.85,0,0,1-.13-.7,1.8,1.8,0,0,1,.13-.69,1.66,1.66,0,0,1,.36-.58,1.87,1.87,0,0,1,.61-.41,2.24,2.24,0,0,1,1.61,0,1.83,1.83,0,0,1,.6.41,1.69,1.69,0,0,1,.37.58,1.8,1.8,0,0,1,.13.69,2.06,2.06,0,0,1-.12.7,1.85,1.85,0,0,1-.37.58,1.71,1.71,0,0,1-.6.4A2.09,2.09,0,0,1,48.79,44.17ZM48,42.34a1,1,0,0,0,.22.67.73.73,0,0,0,.58.25.81.81,0,0,0,.31-.06.92.92,0,0,0,.25-.19.9.9,0,0,0,.16-.29,1.16,1.16,0,0,0,.06-.38.94.94,0,0,0-.22-.66.73.73,0,0,0-.56-.26.83.83,0,0,0-.32.07.84.84,0,0,0-.42.48A1.15,1.15,0,0,0,48,42.34Z" transform="translate(-9.18 -9.1)"/><path class="cls-1" d="M54.82,44.1H53.74v-2a.75.75,0,0,0-.14-.5.4.4,0,0,0-.34-.16.52.52,0,0,0-.24,0,.71.71,0,0,0-.22.13,1.19,1.19,0,0,0-.2.19.85.85,0,0,0-.13.25v2H51.39V40.58h1v.59a1.28,1.28,0,0,1,.56-.49,2,2,0,0,1,.83-.17,1.09,1.09,0,0,1,.55.13.88.88,0,0,1,.34.32,1.52,1.52,0,0,1,.15.44,3.4,3.4,0,0,1,0,.45Z" transform="translate(-9.18 -9.1)"/><path class="cls-1" d="M57.27,41.68a2.54,2.54,0,0,1,.15-.85,2.5,2.5,0,0,1,.46-.77,2.31,2.31,0,0,1,.72-.54,2.25,2.25,0,0,1,1-.21,2.17,2.17,0,0,1,1.12.29,1.8,1.8,0,0,1,.7.75l-.85.59a1.5,1.5,0,0,0-.19-.31,1,1,0,0,0-.54-.31,1.31,1.31,0,0,0-.27,0,1,1,0,0,0-.52.13,1.13,1.13,0,0,0-.36.33,1.62,1.62,0,0,0-.21.46,1.75,1.75,0,0,0-.07.51,1.71,1.71,0,0,0,.09.55,1.53,1.53,0,0,0,.23.46,1.1,1.1,0,0,0,.37.31,1,1,0,0,0,.48.12,1.33,1.33,0,0,0,.28,0,1.39,1.39,0,0,0,.28-.12.82.82,0,0,0,.25-.2,1.09,1.09,0,0,0,.18-.3l.91.52a1.48,1.48,0,0,1-.31.47,2,2,0,0,1-.47.35,2.6,2.6,0,0,1-.56.22,2.36,2.36,0,0,1-.58.07,2.05,2.05,0,0,1-.93-.21,2.59,2.59,0,0,1-.72-.56,3,3,0,0,1-.47-.79A2.59,2.59,0,0,1,57.27,41.68Z" transform="translate(-9.18 -9.1)"/><path class="cls-1" d="M63.83,44.17A2.09,2.09,0,0,1,63,44a1.56,1.56,0,0,1-.6-.39,1.68,1.68,0,0,1-.38-.57,2,2,0,0,1-.13-.68,2.09,2.09,0,0,1,.13-.72,1.84,1.84,0,0,1,.37-.6,1.91,1.91,0,0,1,.6-.4,2.1,2.1,0,0,1,.82-.15,2,2,0,0,1,.8.15,1.71,1.71,0,0,1,.6.4,1.85,1.85,0,0,1,.37.58,2,2,0,0,1,.12.69v.19c0,.06,0,.11,0,.15H63.07a.67.67,0,0,0,.26.54.78.78,0,0,0,.53.19,1,1,0,0,0,.46-.12.56.56,0,0,0,.29-.3l.92.25a1.74,1.74,0,0,1-.64.68A2.11,2.11,0,0,1,63.83,44.17ZM64.58,42a.82.82,0,0,0-.24-.53.75.75,0,0,0-.53-.19.69.69,0,0,0-.52.19A.85.85,0,0,0,63,42Z" transform="translate(-9.18 -9.1)"/><path class="cls-1" d="M69.82,44.1H68.74v-2a.81.81,0,0,0-.13-.5.43.43,0,0,0-.35-.16.52.52,0,0,0-.24,0,.71.71,0,0,0-.22.13.86.86,0,0,0-.19.19.69.69,0,0,0-.14.25v2H66.38V40.58h1v.59a1.34,1.34,0,0,1,.56-.49,2,2,0,0,1,.83-.17,1.19,1.19,0,0,1,.56.13.92.92,0,0,1,.33.32,1.52,1.52,0,0,1,.15.44,3.4,3.4,0,0,1,0,.45Z" transform="translate(-9.18 -9.1)"/><path class="cls-1" d="M73,43.91l-.51.18a2.32,2.32,0,0,1-.58.08,1.6,1.6,0,0,1-.39-.05A1.2,1.2,0,0,1,71.2,44a.81.81,0,0,1-.21-.29,1.2,1.2,0,0,1-.07-.44V41.4h-.46v-.82h.46V39.46H72v1.12h.73v.82H72v1.46a.3.3,0,0,0,.09.25.36.36,0,0,0,.23.08.71.71,0,0,0,.24,0l.24-.09Z" transform="translate(-9.18 -9.1)"/><path class="cls-1" d="M75.84,41.5a2,2,0,0,0-.71.13.89.89,0,0,0-.46.36V44.1H73.58V40.58h1v.71a1.51,1.51,0,0,1,.47-.55,1.21,1.21,0,0,1,.62-.21h.17Z" transform="translate(-9.18 -9.1)"/><path class="cls-1" d="M78.18,44.17a2.09,2.09,0,0,1-.81-.15,1.73,1.73,0,0,1-.6-.39,1.52,1.52,0,0,1-.37-.57,2,2,0,0,1-.13-.68,2.09,2.09,0,0,1,.13-.72,1.55,1.55,0,0,1,.37-.6,1.71,1.71,0,0,1,.6-.4,2.26,2.26,0,0,1,1.62,0,1.58,1.58,0,0,1,.59.4,1.72,1.72,0,0,1,.38.58,2,2,0,0,1,.12.69c0,.06,0,.13,0,.19a.61.61,0,0,1,0,.15H77.42a.7.7,0,0,0,.26.54.8.8,0,0,0,.53.19,1,1,0,0,0,.46-.12A.55.55,0,0,0,79,43l.92.25a1.63,1.63,0,0,1-.65.68A2.06,2.06,0,0,1,78.18,44.17ZM78.94,42a.83.83,0,0,0-.25-.53.74.74,0,0,0-.52-.19.75.75,0,0,0-.53.19.8.8,0,0,0-.24.53Z" transform="translate(-9.18 -9.1)"/><path class="cls-1" d="M36.33,68.35a8.06,8.06,0,0,1-2.93-.52,7.45,7.45,0,0,1-2.35-1.4,6.5,6.5,0,0,1-1.54-2.12A6.36,6.36,0,0,1,29,61.66a6.11,6.11,0,0,1,.68-2.9,7,7,0,0,1,1.89-2.26A8.67,8.67,0,0,1,34.38,55a12.47,12.47,0,0,1,3.67-.51,9.88,9.88,0,0,1,4.24.79v-.64a2.63,2.63,0,0,0-.86-2.17,4.29,4.29,0,0,0-2.78-.71,9.43,9.43,0,0,0-3.33.57,16.27,16.27,0,0,0-3.2,1.68l-2.21-4.67a17.31,17.31,0,0,1,9.5-2.65q5.06,0,7.78,2.21t2.72,6.66v4a2.18,2.18,0,0,0,.4,1.49,2.25,2.25,0,0,0,1.44.5V68c-.69.13-1.34.23-2,.29a14.48,14.48,0,0,1-1.64.1A5.37,5.37,0,0,1,45,67.61a3.35,3.35,0,0,1-1.38-2.15l-.16-.75a9.7,9.7,0,0,1-3.25,2.71A8.57,8.57,0,0,1,36.33,68.35ZM38.61,63a4.69,4.69,0,0,0,1.4-.22,5,5,0,0,0,1.29-.57,3.12,3.12,0,0,0,.71-.69,1.21,1.21,0,0,0,.28-.78V59.16a10.92,10.92,0,0,0-1.48-.4,7.83,7.83,0,0,0-1.44-.15,3.82,3.82,0,0,0-2.32.67,2,2,0,0,0-.92,1.7,1.74,1.74,0,0,0,.7,1.43A2.76,2.76,0,0,0,38.61,63Z" transform="translate(-9.18 -9.1)"/><path class="cls-1" d="M56.34,57.54a11.13,11.13,0,0,1,.76-4.1A10,10,0,0,1,59.32,50,10.69,10.69,0,0,1,63,47.62a12.88,12.88,0,0,1,5-.89,12.16,12.16,0,0,1,6.43,1.58,10.23,10.23,0,0,1,3.87,4.08L70.81,54.6a3.44,3.44,0,0,0-2.93-1.54,3.48,3.48,0,0,0-2.65,1.17,4.7,4.7,0,0,0-1.08,3.31,4.67,4.67,0,0,0,1.08,3.3A3.48,3.48,0,0,0,67.88,62a3.44,3.44,0,0,0,2.93-1.54l7.41,2.22a10.27,10.27,0,0,1-3.87,4.07,12.07,12.07,0,0,1-6.43,1.59,13.07,13.07,0,0,1-5-.89,10.86,10.86,0,0,1-3.63-2.38,10,10,0,0,1-2.22-3.44A11.21,11.21,0,0,1,56.34,57.54Z" transform="translate(-9.18 -9.1)"/><path class="cls-2" d="M96.2,95.67a2.93,2.93,0,0,1-1-.19,4,4,0,0,1-1.09-.67,4.13,4.13,0,0,1-.82-1,3.26,3.26,0,0,1-.47-1.54A2.53,2.53,0,0,1,93,91.2l0,0a11.7,11.7,0,0,1-.63-1A11.36,11.36,0,0,1,91.85,89c-.08-.21-.15-.4-.22-.54a2.24,2.24,0,0,0-.66-.77c-.16-.16-.29-.29-.43-.45a3.41,3.41,0,0,1-.38-.55,5,5,0,0,1-.42-.94,11,11,0,0,1-.41-1.66l-.17-1a0,0,0,0,1,0,0l-.07-.18c-.06-.15-.15-.36-.22-.59a3.87,3.87,0,0,1-.13-.61c0-.19,0-.37,0-.52s0-.34,0-.49v-.34l-.1-.13A5.24,5.24,0,0,1,88,79.4,14.18,14.18,0,0,1,87.4,78l-.05-.14c-.09-.24-.18-.45-.27-.64a1.8,1.8,0,0,0-.24-.42l-.15-.21a5,5,0,0,1-.4-.57,3.4,3.4,0,0,1-.59-1.58c0-.17,0-.32,0-.46h0a5.86,5.86,0,0,1,0-.6s0,0,0,0a1.21,1.21,0,0,1-.08-.58l0-.52a.59.59,0,0,1,0-.13l0-.1a2.33,2.33,0,0,1,.08-.31,3.84,3.84,0,0,0,0-.73,2.33,2.33,0,0,1,.06-.71,1.51,1.51,0,0,1,.22-.6c.17-.28.36-.53.55-.79.47-.61.57-.79.53-1.16a1.56,1.56,0,0,0-.17-.4,4.55,4.55,0,0,1-.52-1.71,3.34,3.34,0,0,1,.13-1.19.93.93,0,0,0,0-.13,7.55,7.55,0,0,0-.37-.89c-.07-.15-.12-.28-.18-.39l-.44-1.08A16.73,16.73,0,0,0,85,60.38c-.32-.42-.62-.84-.88-1.24l-.31-.29a6.85,6.85,0,0,1-1-1.06,5.68,5.68,0,0,1-1.09-2.6,2.72,2.72,0,0,1,.4-1.41l.06-.11c0-.07,0-.45.07-.64l0-.23c-.18-1.51-.34-2.7-.34-2.71V46.53a.56.56,0,0,1,.55-.56h8.06a.56.56,0,0,1,.55.56v9.12a.37.37,0,0,1,0,.11L89.94,61.3l-.18,1.75A4,4,0,0,1,90,64.22a3.63,3.63,0,0,1-.15,1,.84.84,0,0,0,0,.12,1.44,1.44,0,0,0,.19.45,4.38,4.38,0,0,1,.49,1.5,4.62,4.62,0,0,1-1.18,3.55,4.87,4.87,0,0,0-.37.52,1.31,1.31,0,0,1-.29.34c-.07.08-.15.18-.24.27a3.84,3.84,0,0,0-.31.36l0,.2a2.74,2.74,0,0,0-.14.64v.06a4.64,4.64,0,0,0,0,.91,2.37,2.37,0,0,0,.61.9l.09.1a6,6,0,0,1,1.1,1.8,9.76,9.76,0,0,0,.49,1.29,1.86,1.86,0,0,0,.27.44,3.85,3.85,0,0,1,.53.92,4.68,4.68,0,0,1,.1,1.12c0,.22,0,.42,0,.61a.54.54,0,0,1,.22.33,2.33,2.33,0,0,0,.1.32,3.6,3.6,0,0,1,.2.8l.15,1a9.62,9.62,0,0,0,.27,1.09c.18.07.29.24.49.54l.06.07a3.68,3.68,0,0,0,.44.47,4.08,4.08,0,0,1,.46.49,3.91,3.91,0,0,1,.44.67c.12.25.21.45.33.76,0,.07.06.17.1.27a5.55,5.55,0,0,0,.32.77.58.58,0,0,1,.12.36v0l.13.16a.5.5,0,0,1,.2.23.52.52,0,0,1,0,.24s.07.1.1.16a2.57,2.57,0,0,1,.25.63,1.59,1.59,0,0,1,0,.81.76.76,0,0,1,0,.11.6.6,0,0,1,0,.35c0,.1-.07.16-.09.2a1.31,1.31,0,0,0,.54.62,1.39,1.39,0,0,0,.21.1l.27-.07.19,0a3.76,3.76,0,0,1,.86-.21h.39l.16,0,.13-.06c.19-.07.39-.15.58-.2l.14,0a.63.63,0,0,1,.3-.07h.13l.61-.06a.28.28,0,0,1,.13,0l.26,0,.67.09h.15a3.56,3.56,0,0,0,.58-.06,6.23,6.23,0,0,0,1.52-.52,6.31,6.31,0,0,0,.68-.38c.18-.11.33-.23.51-.36l1.49-1.14a.5.5,0,0,1,.19-.1.61.61,0,0,1,.33-.12l.29-.31a3.63,3.63,0,0,0,.68-1l.25-.45a3.83,3.83,0,0,1,.89-1.1l.34-.27a2.14,2.14,0,0,0,.33-.29,6.1,6.1,0,0,0,.51-1.46.29.29,0,0,1,0-.09A2,2,0,0,1,110,83a2.82,2.82,0,0,1,1.46-1.06l.19-.07a1.67,1.67,0,0,1,.36-.19l.49-.2.09,0,0,0a.49.49,0,0,1,.18-.14s.07,0,.08-.05l0-.1a.87.87,0,0,1,.12-.29,2.32,2.32,0,0,0-.1-.9l-.15-.43a5.05,5.05,0,0,1-.21-.57l-.1-.27a3.05,3.05,0,0,1-.13-.32,2.23,2.23,0,0,1,.66-2.66,7.19,7.19,0,0,1,.77-.65l.18-.14a6.4,6.4,0,0,0,.54-.44l.29-.32c.15-.17.33-.38.57-.62l0,0h0a.66.66,0,0,1,.26-.14h0a4,4,0,0,1,.61-.34,7.78,7.78,0,0,1,.75-.27c.19-.07.39-.13.61-.22l.62-.62A11.15,11.15,0,0,0,119,71c.12-.17.13-.19.13-.22a5,5,0,0,0-.07-.58,11.31,11.31,0,0,1-.11-1.9v-.28a2.06,2.06,0,0,1-.11-.76c0-.1,0-.2,0-.28a.51.51,0,0,1-.07-.3v-.13a5.08,5.08,0,0,1-.43-.69c-.17-.33-.3-.67-.44-1L117.5,64a1,1,0,0,1,0-.6s0-.1,0-.12l.08-.55c0-.11,0-.21,0-.3a1.12,1.12,0,0,0,0-.2v0L117.4,62a2.71,2.71,0,0,1-.43-1.11,3,3,0,0,1,0-1.07,3.15,3.15,0,0,1,.36-1,6.38,6.38,0,0,1,.51-.75l.16-.22a.67.67,0,0,1,.14-.15,2.38,2.38,0,0,0,.12-.27,2.52,2.52,0,0,0,.14-.33c.1-.24.21-.52.38-.85a3.41,3.41,0,0,1,.7-.86,3.91,3.91,0,0,1,.43-.35L120,55a2.49,2.49,0,0,0,.27-.23.54.54,0,0,1,.41-.29l.06-.07a4.64,4.64,0,0,1,.37-.69,11.7,11.7,0,0,1,.86-1.09c.61-.67,1.23-1.19,1.25-1.22l.12-.07a2.64,2.64,0,0,0,.37-.27,10.31,10.31,0,0,1,1.2-.8l.19-.11a3.62,3.62,0,0,0,.61-.39c.2-.16.37-.32.55-.48l.18-.17,1-1.38a.54.54,0,0,1,.47-.23.22.22,0,0,1,.11-.05l.3-.44.08-.13,0,0a.54.54,0,0,1,0-.22c.05-.11.09-.22.11-.28v0c0-.17,0-.31.06-.46a2.57,2.57,0,0,1,.2-.65l.19-.34.1-.14a9.12,9.12,0,0,0,.69-1.25l.08-.53a.51.51,0,0,1,.22-.36l.13-.29.08-.21,0-.06-.2,0a10.92,10.92,0,0,1-1.13.05l-.64,0a2.66,2.66,0,0,0-.74.17l-.67.2-.37.06-.57.13-.17,0a1,1,0,0,1-.56.29,3.15,3.15,0,0,1-.53.06,2.67,2.67,0,0,1-1.46-.52,3.46,3.46,0,0,1-.67-.63,2.26,2.26,0,0,1-.2-.26l-.2-.28a7.23,7.23,0,0,0-.51-.65l0-.07a.55.55,0,0,1-.12-.43,3.13,3.13,0,0,1,.11-.44.27.27,0,0,1,0-.13l-.23-.19-.37-.39-.29-.33a.61.61,0,0,1-.13-.27.49.49,0,0,1-.24-.16,2.45,2.45,0,0,0-.76-.59l-.35-.18a9.42,9.42,0,0,1-1-.52,4.14,4.14,0,0,1-.84-.73,3.18,3.18,0,0,1-.62-1.15,7.1,7.1,0,0,1-.22-1c0-.13,0-.24-.06-.34a.55.55,0,0,1,0-.31l-.57-.41a4.73,4.73,0,0,1-.61-.54,2.89,2.89,0,0,1-.62-1,6.35,6.35,0,0,1-.22-1,1.45,1.45,0,0,0,0-.25.81.81,0,0,1,0-.16,3,3,0,0,0,0-.87,3.36,3.36,0,0,0-.4-.77c-.25-.39-.53-.74-.82-1.11l-.54-.67,0-.06a5,5,0,0,1-.7-.94l0-.07c-.18-.31-.33-.62-.47-.92l-.35-.68a10.12,10.12,0,0,1-.45-.93.69.69,0,0,1,0-.28l-.13-.38a.39.39,0,0,1,0-.14,1.94,1.94,0,0,0-.41-.57,3.45,3.45,0,0,1-.58-.69l-.43-.73a5.83,5.83,0,0,0-.6-.45l-.2-.13-.55-.4a4,4,0,0,0-.46-.31,2.06,2.06,0,0,0-.39-.17,1.31,1.31,0,0,0-.26-.09,3.15,3.15,0,0,1-1.74-.23,6.91,6.91,0,0,1-.68-.28c-.19-.08-.38-.17-.57-.24a2.75,2.75,0,0,0-.49-.14h-.16a2.88,2.88,0,0,1-.66,0,1.7,1.7,0,0,1-.74-.3l-.28-.19,0-.05h-.18a.66.66,0,0,1-.38-.12,3,3,0,0,1-.64-.07l-.13,0a1.37,1.37,0,0,1-.44-.31l-.09-.08-.13-.11a1.7,1.7,0,0,0-.75-.28,1.65,1.65,0,0,0-.92.08.59.59,0,0,1-.22.05h0a.74.74,0,0,1-.33-.07.39.39,0,0,0-.09.33c0,.11,0,.2,0,.29a1.92,1.92,0,0,1-.5,1.91,2.27,2.27,0,0,1-2.44.06,5,5,0,0,0-1.06-.41h-.36a3.4,3.4,0,0,1-.89-.11,2.08,2.08,0,0,1-1-.69,2.78,2.78,0,0,1-.29-.44l-.12-.25a.58.58,0,0,0,0-.11.29.29,0,0,1-.13,0,3.84,3.84,0,0,0-1.14-.36l-.28,0a1.94,1.94,0,0,1-.44,0,3,3,0,0,1-.67-.08.56.56,0,0,1-.27-.18,5.06,5.06,0,0,1-1.09-.49L86,15.7c-.15-.09-.32-.18-.48-.29a2.17,2.17,0,0,1-.88-1A1.71,1.71,0,0,1,85,13a2.34,2.34,0,0,1,.29-.35A2.15,2.15,0,0,1,85,12a.71.71,0,0,1,0-.14v-.07c0-.06,0-.14,0-.21h0l0,0a2.82,2.82,0,0,1-.66.3.48.48,0,0,1-.24,0l-.36,0H83.6c-.23,0-.45,0-.66-.05l-.28,0a5.39,5.39,0,0,0-.73-.08.4.4,0,0,0-.2,0l-.15.05a4,4,0,0,1-.64.21,2.11,2.11,0,0,1-.37,0l-.19,0-.42,0H78.77a8.49,8.49,0,0,0-1,0,6.66,6.66,0,0,0-1.25.21,3.38,3.38,0,0,0-.49.17,4.47,4.47,0,0,0-.45.28,6.89,6.89,0,0,1-.77.45l-.39.23-.11.07a.75.75,0,0,1-.24.08l-.09,0-.13.06a3.53,3.53,0,0,1-.65.25,4.17,4.17,0,0,1-1.4,0l-.39,0a4.26,4.26,0,0,0-.62,0H70l0,0a4.63,4.63,0,0,1-.71.43,7.13,7.13,0,0,1-.74.3l-.34.1h0l-.1.09a4.51,4.51,0,0,1-.51.34,5.68,5.68,0,0,1-.68.32l-.16.07a2.67,2.67,0,0,0-.51.25.72.72,0,0,0-.2.22.52.52,0,0,1-.18.18c0,.06-.1.15-.18.29l-.49.89a1.46,1.46,0,0,0-.15.47,2.25,2.25,0,0,0,0,.26c0,.19,0,.37,0,.5a.54.54,0,0,1-.08.28,1.56,1.56,0,0,1-.16.2A5.8,5.8,0,0,1,64,20.39a6.1,6.1,0,0,1-1,1,7.45,7.45,0,0,1-1.2.7,5.09,5.09,0,0,1-.64.23l-.09,0-.15.05,0,.05a4.23,4.23,0,0,1-1,1.19,5.38,5.38,0,0,1-.43.34l-.23.18c0,.06,0,.17-.09.27a.5.5,0,0,1-.13.22,2.73,2.73,0,0,1-.2.48,2.54,2.54,0,0,1-.67.87,4.64,4.64,0,0,1-.39.32,2.34,2.34,0,0,0-.38.34,1.8,1.8,0,0,0-.15.31,4.89,4.89,0,0,1-.3.61,5.18,5.18,0,0,1-.62.79l-.09.11a1.74,1.74,0,0,0-.34.44.17.17,0,0,0,0,.11,1.15,1.15,0,0,0,.15.2,1.82,1.82,0,0,1,.2.25,1.27,1.27,0,0,1,.26.94,6.6,6.6,0,0,1-.2,1l0,.11c-.07.26-.2.73-.68.73a.57.57,0,0,1-.18,0c-.37-.12-.47-.52-.51-.9,0-.13,0-.28,0-.45s0-.26,0-.33l0,0-.12-.1a.74.74,0,0,1-.13-.12A2,2,0,0,1,54.09,28a3.5,3.5,0,0,1,.27-.51l.28-.4c.1-.15.2-.29.28-.42a1.1,1.1,0,0,0,.16-.4l.06-.15a3,3,0,0,1,.39-.86,5.8,5.8,0,0,1,.76-.82c.08-.08.21-.19.24-.23a1.82,1.82,0,0,0,.12-.36c0-.07,0-.12,0-.17a3.81,3.81,0,0,1,.33-.87,3.19,3.19,0,0,1,.75-.81l.09-.07a3.79,3.79,0,0,0,.39-.36,1.47,1.47,0,0,0,.25-.36,2.85,2.85,0,0,1,.77-1,2.89,2.89,0,0,1,.75-.37l.94-.37a4.63,4.63,0,0,0,.8-.53,3.75,3.75,0,0,0,.53-.58l.06-.1h0a5,5,0,0,1,0-.55,3.46,3.46,0,0,1,.28-1.14c.14-.3.28-.53.4-.74l.4-.67a4,4,0,0,1,1.47-1.53,8.39,8.39,0,0,1,.87-.42,2.16,2.16,0,0,0,.37-.16l0,0,.08-.07s0-.06.06-.06l.32-.36a.58.58,0,0,1,.24-.15l.5-.15.12,0,.12-.05A2.76,2.76,0,0,0,68,12a2.7,2.7,0,0,0,.33-.22l.17-.15.49-.48a.56.56,0,0,1,.52-.15c.22.06.45.11.68.15h.43a5.92,5.92,0,0,1,.73,0c.24,0,.48,0,.7.06l.16,0,.34,0a2.74,2.74,0,0,0,.32-.18L73,11a7,7,0,0,1,.67-.34l.54-.33.43-.25a2.92,2.92,0,0,1,.59-.25,8.82,8.82,0,0,1,1.87-.38,8.92,8.92,0,0,1,1.79,0c.59,0,1,.06,1.52,0a3,3,0,0,0,.37-.1l.1,0a3.12,3.12,0,0,1,1.29-.15,10.06,10.06,0,0,1,1,.17c.19,0,.37.08.54.1h0a.41.41,0,0,0,.16-.05l.46-.19a2.51,2.51,0,0,1,.74-.13,2.71,2.71,0,0,1,1.83.79,2.83,2.83,0,0,1,.23.28h0a2.13,2.13,0,0,1,.18.37l0,.06a.81.81,0,0,1,0,.17,1.13,1.13,0,0,1,0,.36,2.33,2.33,0,0,1,0,.29l0,.07v0l0,0,0,.08a1.5,1.5,0,0,1,.34.75,2.49,2.49,0,0,1,0,.26v.23s0,.06,0,.08a1.09,1.09,0,0,0,0,.17,2.36,2.36,0,0,1-.22.45l-.08.11a4.21,4.21,0,0,0,.75.35l.13,0,.15,0a3,3,0,0,1,.88-.06,6.26,6.26,0,0,1,2.36.79,3,3,0,0,1,1,1.15h.13a4,4,0,0,1,2,.54A1.59,1.59,0,0,1,95,16.1a2.71,2.71,0,0,1,1.29-1.7,3.85,3.85,0,0,1,2-.5,5.55,5.55,0,0,1,.72,0,3.77,3.77,0,0,1,2.09.83l.47,0a4.11,4.11,0,0,1,.68.14,2.66,2.66,0,0,1,.75.41h0l.34,0,.26,0,.28,0a8.39,8.39,0,0,1,1.61.48l.19.08a3.23,3.23,0,0,0,.85.24,2.22,2.22,0,0,1,.64,0l.23.05.18.05a4.53,4.53,0,0,1,.59.21,8.66,8.66,0,0,1,1.07.5s.28.18.51.35.34.27.41.33a8.18,8.18,0,0,1,.69.46,4.65,4.65,0,0,1,.72.74.55.55,0,0,1,.2.42.21.21,0,0,1,0,.06l.65.76a.46.46,0,0,1,.12.23,1.38,1.38,0,0,0,.19.28l.24.34a2.83,2.83,0,0,1,.2.28l.11.21,0,.06.26.44a1.71,1.71,0,0,1,.36.82l0,.2a2.67,2.67,0,0,1,.15.34l.34.77a3.26,3.26,0,0,0,.42.72l.05.06.15.22.24.31a19,19,0,0,1,1.52,2.19,5.71,5.71,0,0,1,.4.91,4.71,4.71,0,0,1,.17,1V30a2.74,2.74,0,0,0,.06.77,4.43,4.43,0,0,0,.57.5,4.94,4.94,0,0,1,.7.62,3.12,3.12,0,0,1,.68,1.06,7.22,7.22,0,0,1,.27,1,2.78,2.78,0,0,0,.13.47c0,.08.13.22.51.45l.42.23a8.62,8.62,0,0,1,1,.62,7.92,7.92,0,0,1,1.21,1.14l.09.1a3.82,3.82,0,0,0,.45.45s0,0,.15.11l.36.2a1.81,1.81,0,0,1,.75.87,2.1,2.1,0,0,1,.1,1.18.14.14,0,0,1,0,.07A1.79,1.79,0,0,0,125,40l.09.09.48-.14a5.27,5.27,0,0,1,.66-.17l.09,0,.22-.07.27-.09a5.53,5.53,0,0,1,.88-.27,6.61,6.61,0,0,1,1.24-.12H130a.4.4,0,0,0,.23,0l.18-.07a3.89,3.89,0,0,1,1-.31,1.61,1.61,0,0,1,.33,0,2.45,2.45,0,0,1,.82.15.44.44,0,0,1,.27.19,2.64,2.64,0,0,1,.58,1.93,4.11,4.11,0,0,1-.21,1l-.1.31a.58.58,0,0,1,0,.41,2.44,2.44,0,0,1-.58,1.19.53.53,0,0,1-.07.3l-.76,1.34c-.07.14-.15.29-.21.43a1.2,1.2,0,0,0-.1.22c0,.11,0,.24-.05.32a1.32,1.32,0,0,1-.09.28c0,.09,0,.2-.09.3a6.78,6.78,0,0,1-.36.75l-.17.3a3.1,3.1,0,0,0-.18.32.59.59,0,0,1-.34.44L130,49c-.09.08-.27.27-.55.59a4,4,0,0,1-.82,1.21,8,8,0,0,1-1,1,6.18,6.18,0,0,1-1.17.81l-.21.13-.18.07h0l-.13.06a17.51,17.51,0,0,0-1.59,1.51c-.26.28-.51.55-.74.83l-.16.2-.09.13-.3.51a3.42,3.42,0,0,1-.66.78,6,6,0,0,1-.64.47,4.36,4.36,0,0,0-.39.26.23.23,0,0,0-.08.09,5.7,5.7,0,0,0-.27.66l-.15.39a5.7,5.7,0,0,1-.42.85l-.11.2c-.09.14-.16.25-.22.36a.53.53,0,0,1-.16.2l0,.07h0a4.2,4.2,0,0,1,.33.58,3.56,3.56,0,0,1,.21.7,5,5,0,0,1,0,1.17l-.07.55v0l.14.36c.11.26.2.5.31.71a2.34,2.34,0,0,0,.15.27l0,.07h0l.36.37a.5.5,0,0,1,.17.37c0,.24,0,.45,0,.63a.53.53,0,0,1,.12.35c0,.36,0,.72,0,1.08a14,14,0,0,0,0,1.43,3.53,3.53,0,0,0,.12.85l.06.29a3.46,3.46,0,0,1,0,1.25,3.84,3.84,0,0,1-.48,1.13.64.64,0,0,1-.17.16c-.06.08-.12.18-.19.26-.23.3-.49.57-.49.57l-.13.1a6,6,0,0,1-1,.83,5.53,5.53,0,0,1-1.18.56,3.21,3.21,0,0,0-.45.19.63.63,0,0,1-.27.06.56.56,0,0,0-.22.13,5.11,5.11,0,0,0-.4.47l-.22.28-.07.07-.43.32-.37.25-.77.65,0,0,.15.41c0,.14.07.24.1.33l.09.4c0,.23.09.45.13.67a7.05,7.05,0,0,1,0,2.64,3,3,0,0,1-.65,1.2,3.13,3.13,0,0,1-1,.72,7.44,7.44,0,0,1-1,.4l-.27.1a2.37,2.37,0,0,1,0,.53c0,.17,0,.31-.07.45l-.19.68c-.1.28-.19.55-.3.82s-.12.29-.21.48a3.22,3.22,0,0,1-.48.68,4.36,4.36,0,0,1-.73.63l-.1.07-.28.22a2.63,2.63,0,0,0-.27.39c0,.08-.1.17-.15.26a7,7,0,0,1-.85,1.23,17.57,17.57,0,0,1-2.5,2.26l-.6.45a7.17,7.17,0,0,1-.72.43,9.37,9.37,0,0,1-1.33.58,8,8,0,0,1-2.73.51c-.43,0-.78-.06-1.08-.09a4.06,4.06,0,0,0-.82,0h0c-.08,0-.22.06-.35.09l-.11,0a5.81,5.81,0,0,1-.64.17l-.7.17c-.18.06-.38.11-.64.17A2,2,0,0,1,96.2,95.67Z" transform="translate(-9.18 -9.1)"/><path class="cls-1" d="M93.67,57.54a11.14,11.14,0,0,1,.77-4.1A10.12,10.12,0,0,1,96.66,50a10.78,10.78,0,0,1,3.63-2.37,12.88,12.88,0,0,1,5-.89,12.13,12.13,0,0,1,6.43,1.58,10.25,10.25,0,0,1,3.88,4.08l-7.43,2.21a3.39,3.39,0,0,0-2.92-1.54,3.48,3.48,0,0,0-2.65,1.17,4.7,4.7,0,0,0-1.08,3.31,4.67,4.67,0,0,0,1.08,3.3A3.48,3.48,0,0,0,105.22,62a3.39,3.39,0,0,0,2.92-1.54l7.43,2.22a10.29,10.29,0,0,1-3.88,4.07,12,12,0,0,1-6.43,1.59,13.07,13.07,0,0,1-5-.89,11,11,0,0,1-3.63-2.38,10.18,10.18,0,0,1-2.22-3.44A11.22,11.22,0,0,1,93.67,57.54Z" transform="translate(-9.18 -9.1)"/><path class="cls-2" d="M86.8,34.05a.35.35,0,0,0-.19.06,14.4,14.4,0,0,1-3.93,2.14.34.34,0,0,0-.23.32A9,9,0,0,0,83.81,42a9.25,9.25,0,0,0,2.82,2.36.37.37,0,0,0,.38,0A9.25,9.25,0,0,0,89.83,42a9,9,0,0,0,1.36-5.41.35.35,0,0,0-.22-.32A14.31,14.31,0,0,1,87,34.11.36.36,0,0,0,86.8,34.05Z" transform="translate(-9.18 -9.1)"/><path class="cls-1" d="M14.51,111.16l-.65-1.45H10.31l-.64,1.45H9.18l2.66-5.93h.5L15,111.16Zm-.83-1.88-1.59-3.61-1.6,3.61Z" transform="translate(-9.18 -9.1)"/><path class="cls-1" d="M22.9,110.34a3.06,3.06,0,0,1-2.16.89,3,3,0,1,1,0-6.07,3.06,3.06,0,0,1,2.16.89l-.31.28a2.6,2.6,0,0,0-1.85-.76,2.62,2.62,0,1,0,0,5.24,2.63,2.63,0,0,0,1.85-.76Z" transform="translate(-9.18 -9.1)"/><path class="cls-1" d="M24.42,108h3.47v.41H24.42v2.34h3.74v.44H24v-5.93h4.1v.43H24.42Z" transform="translate(-9.18 -9.1)"/><path class="cls-1" d="M33.41,111.16v-2.69H29.63v2.69h-.45v-5.93h.45v2.82h3.78v-2.82h.46v5.93Z" transform="translate(-9.18 -9.1)"/><path class="cls-1" d="M42.23,111.16l-.66-1.45H38l-.64,1.45H36.9l2.66-5.93h.5l2.66,5.93Zm-.83-1.88-1.6-3.61-1.59,3.61Z" transform="translate(-9.18 -9.1)"/><path class="cls-1" d="M46.75,110.58a2.18,2.18,0,0,1-1.53.63,2.07,2.07,0,0,1-2.15-2.14,2,2,0,0,1,2.15-2.13,2.22,2.22,0,0,1,1.53.62l-.28.26a1.78,1.78,0,0,0-1.25-.49,1.75,1.75,0,1,0,0,3.49,1.74,1.74,0,0,0,1.24-.52Z" transform="translate(-9.18 -9.1)"/><path class="cls-1" d="M51,110.58a2.18,2.18,0,0,1-1.53.63,2.07,2.07,0,0,1-2.16-2.14,2,2,0,0,1,2.16-2.13,2.22,2.22,0,0,1,1.53.62l-.28.26a1.79,1.79,0,0,0-1.25-.49,1.75,1.75,0,1,0,0,3.49,1.74,1.74,0,0,0,1.24-.52Z" transform="translate(-9.18 -9.1)"/><path class="cls-1" d="M52.26,107v.74a1.48,1.48,0,0,1,1.4-.78,1.63,1.63,0,0,1,.9.24l-.19.34a1.31,1.31,0,0,0-.71-.19,1.38,1.38,0,0,0-1.38,1.39v2.44h-.42V107Z" transform="translate(-9.18 -9.1)"/><path class="cls-1" d="M55,109.07a2.09,2.09,0,0,1,2.12-2.16,2,2,0,0,1,2.07,2.36H55.38a1.65,1.65,0,0,0,1.7,1.55,2,2,0,0,0,1.51-.64l.3.24a2.32,2.32,0,0,1-1.81.8A2,2,0,0,1,55,109.07Zm3.81-.17a1.53,1.53,0,0,0-1.69-1.61,1.67,1.67,0,0,0-1.7,1.61Z" transform="translate(-9.18 -9.1)"/><path class="cls-1" d="M64.24,105.23v5.93h-.4v-.92a2,2,0,0,1-1.75,1,2.16,2.16,0,0,1,0-4.32,1.87,1.87,0,0,1,1.74,1v-2.66Zm-3.84,3.84a1.63,1.63,0,0,0,1.71,1.76,1.77,1.77,0,0,0,0-3.53A1.63,1.63,0,0,0,60.4,109.07Z" transform="translate(-9.18 -9.1)"/><path class="cls-1" d="M66,105.61a.34.34,0,0,1-.67,0A.34.34,0,0,1,66,105.61ZM65.43,107v4.2h.42V107Z" transform="translate(-9.18 -9.1)"/><path class="cls-1" d="M68,105.71V107h1.42v.35H68v2.55c0,.56.12,1,.77,1a1.43,1.43,0,0,0,.64-.17l.15.34a1.79,1.79,0,0,1-.79.21c-.89,0-1.18-.52-1.18-1.34v-2.55H66.7V107h.89v-1.22Z" transform="translate(-9.18 -9.1)"/><path class="cls-1" d="M70.14,109.07a2.1,2.1,0,0,1,2.13-2.16,2,2,0,0,1,2.07,2.36H70.57a1.64,1.64,0,0,0,1.7,1.55,2,2,0,0,0,1.51-.64l.29.24a2.32,2.32,0,0,1-1.8.8A2.05,2.05,0,0,1,70.14,109.07ZM74,108.9a1.55,1.55,0,0,0-1.7-1.61,1.66,1.66,0,0,0-1.7,1.61Z" transform="translate(-9.18 -9.1)"/><path class="cls-1" d="M79.43,105.23v5.93H79v-.92a2,2,0,0,1-1.75,1,2.16,2.16,0,0,1,0-4.32,1.86,1.86,0,0,1,1.74,1v-2.66Zm-3.84,3.84a1.63,1.63,0,0,0,1.71,1.76,1.77,1.77,0,0,0,0-3.53A1.63,1.63,0,0,0,75.59,109.07Z" transform="translate(-9.18 -9.1)"/><path class="cls-1" d="M84.71,105.65H82.57v-.41h4.75v.41H85.17v5.51h-.46Z" transform="translate(-9.18 -9.1)"/><path class="cls-1" d="M87.61,107l0,.74a1.45,1.45,0,0,1,1.39-.78,1.6,1.6,0,0,1,.9.24l-.19.34a1.29,1.29,0,0,0-.71-.19,1.38,1.38,0,0,0-1.38,1.39v2.44h-.42V107Z" transform="translate(-9.18 -9.1)"/><path class="cls-1" d="M94.57,107v4.18h-.42v-.88a1.94,1.94,0,0,1-1.71,1,2.15,2.15,0,0,1,0-4.3,1.89,1.89,0,0,1,1.71,1V107Zm-3.84,2.09a1.68,1.68,0,0,0,1.71,1.76,1.75,1.75,0,1,0,0-3.5A1.67,1.67,0,0,0,90.73,109.07Z" transform="translate(-9.18 -9.1)"/><path class="cls-1" d="M96.25,105.61a.34.34,0,0,1-.67,0A.34.34,0,0,1,96.25,105.61ZM95.7,107v4.2h.41V107Z" transform="translate(-9.18 -9.1)"/><path class="cls-1" d="M97.7,107v.74a1.7,1.7,0,0,1,1.5-.82,1.75,1.75,0,0,1,1.89,1.85v2.41h-.42v-2.4a1.35,1.35,0,0,0-1.49-1.46,1.47,1.47,0,0,0-1.47,1.53v2.33H97.3V107Z" transform="translate(-9.18 -9.1)"/><path class="cls-1" d="M102.72,105.61a.34.34,0,0,1-.67,0A.34.34,0,0,1,102.72,105.61Zm-.55,1.35v4.2h.42V107Z" transform="translate(-9.18 -9.1)"/><path class="cls-1" d="M104.18,107v.74a1.68,1.68,0,0,1,1.49-.82,1.76,1.76,0,0,1,1.9,1.85v2.41h-.43v-2.4a1.35,1.35,0,0,0-1.49-1.46,1.47,1.47,0,0,0-1.46,1.53v2.33h-.42V107Z" transform="translate(-9.18 -9.1)"/><path class="cls-1" d="M112,106.81l.27.23-.41.48a2.05,2.05,0,0,1-.61,3.2,1.55,1.55,0,0,1,1.15,1.5c0,1.13-.88,1.68-2,1.68a1.76,1.76,0,0,1-2-1.68h.42c0,.86.73,1.27,1.57,1.27s1.58-.37,1.58-1.27-.8-1.25-1.58-1.25a2,2,0,0,1,0-4.07,2.1,2.1,0,0,1,1.18.38Zm-3.14,2.13a1.53,1.53,0,0,0,1.55,1.61,1.61,1.61,0,0,0,1.57-1.61,1.5,1.5,0,0,0-1.57-1.62A1.47,1.47,0,0,0,108.87,108.94Z" transform="translate(-9.18 -9.1)"/><path class="cls-1" d="M120.55,110.34a3.06,3.06,0,0,1-2.16.89,3,3,0,1,1,0-6.07,3.06,3.06,0,0,1,2.16.89l-.31.28a2.6,2.6,0,0,0-1.85-.76,2.62,2.62,0,0,0,0,5.24,2.67,2.67,0,0,0,1.86-.76Z" transform="translate(-9.18 -9.1)"/><path class="cls-1" d="M121.22,109.07a2.1,2.1,0,0,1,2.13-2.16,2,2,0,0,1,2.06,2.36h-3.76a1.64,1.64,0,0,0,1.7,1.55,2,2,0,0,0,1.51-.64l.29.24a2.3,2.3,0,0,1-1.8.8A2.05,2.05,0,0,1,121.22,109.07Zm3.82-.17a1.53,1.53,0,0,0-1.69-1.61,1.67,1.67,0,0,0-1.7,1.61Z" transform="translate(-9.18 -9.1)"/><path class="cls-1" d="M126.89,107v.74a1.7,1.7,0,0,1,1.5-.82,1.75,1.75,0,0,1,1.89,1.85v2.41h-.41v-2.4a1.36,1.36,0,0,0-1.5-1.46,1.46,1.46,0,0,0-1.46,1.53v2.33h-.42V107Z" transform="translate(-9.18 -9.1)"/><path class="cls-1" d="M132.14,105.71V107h1.43v.35h-1.43v2.55c0,.56.12,1,.78,1a1.43,1.43,0,0,0,.64-.17l.14.34a1.75,1.75,0,0,1-.78.21c-.9,0-1.18-.52-1.18-1.34v-2.55h-.89V107h.89v-1.22Z" transform="translate(-9.18 -9.1)"/><path class="cls-1" d="M134.92,107v.74a1.47,1.47,0,0,1,1.39-.78,1.6,1.6,0,0,1,.9.24l-.19.34a1.26,1.26,0,0,0-.71-.19,1.38,1.38,0,0,0-1.38,1.39v2.44h-.42V107Z" transform="translate(-9.18 -9.1)"/><path class="cls-1" d="M137.61,109.07a2.1,2.1,0,0,1,2.13-2.16,2,2,0,0,1,2.06,2.36H138a1.66,1.66,0,0,0,1.71,1.55,2,2,0,0,0,1.51-.64l.29.24a2.3,2.3,0,0,1-1.8.8A2.05,2.05,0,0,1,137.61,109.07Zm3.82-.17a1.53,1.53,0,0,0-1.69-1.61A1.69,1.69,0,0,0,138,108.9Z" transform="translate(-9.18 -9.1)"/></svg>