<svg width="20px" height="22px" viewBox="0 0 20 22" version="1.1" xmlns="http://www.w3.org/2000/svg" xmlns:xlink="http://www.w3.org/1999/xlink"><title>bullet</title><desc>Created with Sketch.</desc><defs/><g fill="#23516E" stroke="none" stroke-width="1" fill-rule="evenodd"><path d="M15.0012141,7 C16.6572238,7 18,8.34466019 18,10.0024272 C18,11.657767 16.6572238,13 15.0012141,13 C13.3427762,13 12,11.657767 12,10.0024272 C12,8.34466019 13.3427762,7 15.0012141,7" transform="translate(1 1)"/><path d="M3.0012131,0 C4.65830975,0 6,1.34357316 6,3 C6,4.65885206 4.65830975,6 3.0012131,6 C1.34169025,6 0,4.65885206 0,3 C0,1.34357316 1.34169025,0 3.0012131,0" transform="translate(1 1)"/><path d="M3,14 C4.65533981,14 6,15.3427762 6,16.9987859 C6,18.6572238 4.65533981,20 3,20 C1.34223301,20 0,18.6572238 0,16.9987859 C0,15.3427762 1.34223301,14 3,14" transform="translate(1 1)"/></g></svg>