<svg id="Layer_1" data-name="Layer 1" xmlns="http://www.w3.org/2000/svg" viewBox="0 0 58.99 52.53"><defs><style>.cls-1,.cls-2{fill:none;stroke-miterlimit:10;stroke-width:0.8px;}.cls-1{stroke:#000;}.cls-2{stroke:#23526e;}</style></defs><title>controls</title><rect class="cls-1" x="24.14" y="16.56" width="10.71" height="10.71" rx="5.36" ry="5.36"/><path class="cls-1" d="M37.57,26.76V23.39a2.85,2.85,0,0,0-5.69,0v3.37" transform="translate(-5.23 -9.23)"/><path d="M35.07,32.5V29.79a.69.69,0,1,0-1-.6.68.68,0,0,0,.34.6V32.5a.69.69,0,1,0,1,.6A.7.7,0,0,0,35.07,32.5Z" transform="translate(-5.23 -9.23)"/><rect class="cls-2" x="0.4" y="0.4" width="58.19" height="45.41" rx="4.23" ry="4.23"/><line class="cls-2" x1="0.4" y1="36.69" x2="58.59" y2="36.69"/><line class="cls-2" x1="29.49" y1="45.81" x2="29.49" y2="52.13"/><line class="cls-2" x1="23.86" y1="52.13" x2="35.13" y2="52.13"/></svg>