<svg xmlns="http://www.w3.org/2000/svg" width="500.999" height="1101" viewBox="0 0 500.999 1101">
  <path id="Union_4" data-name="Union 4" d="M-1092.227,1119.022V155.275l-162.395,155.152a32.821,32.821,0,0,1-22.922,9.084,32.981,32.981,0,0,1-22.918-9.084,29.749,29.749,0,0,1,0-43.666l217.5-207.707a29.777,29.777,0,0,1,7.438-5.155,33.466,33.466,0,0,1,15.746-3.9A32.906,32.906,0,0,1-1034.8,61.319l215.355,205.442a29.957,29.957,0,0,1,0,43.666,33.526,33.526,0,0,1-45.879,0l-162.1-154.618v963.212c0,17.06-14.566,30.979-32.352,30.979C-1077.664,1150-1092.227,1136.082-1092.227,1119.022Z" transform="translate(1310.503 -49.5)" fill="#384569" stroke="rgba(0,0,0,0)" stroke-width="1"/>
</svg>
