<svg id="Layer_1" data-name="Layer 1" xmlns="http://www.w3.org/2000/svg" viewBox="0 0 138.52 67.55"><defs><style>.cls-1{fill:#1a2857;}.cls-2{fill:#6e6f72;}</style></defs><title>cveqlogo</title><path class="cls-1" d="M13.34,68a7.28,7.28,0,0,0-.92-.48c-.27-.12-.57-.23-.9-.34a3.32,3.32,0,0,0-1-.15,1.37,1.37,0,0,0-.62.12.42.42,0,0,0-.23.4.46.46,0,0,0,.14.34,1.19,1.19,0,0,0,.38.25,6.33,6.33,0,0,0,.62.21l.82.26a9.14,9.14,0,0,1,1.32.49,3.71,3.71,0,0,1,1,.63,2.36,2.36,0,0,1,.64.88,3.19,3.19,0,0,1,.22,1.26,3.24,3.24,0,0,1-.35,1.6,2.81,2.81,0,0,1-.92,1,3.93,3.93,0,0,1-1.29.55,5.93,5.93,0,0,1-1.45.17,8.15,8.15,0,0,1-1.19-.09,8.67,8.67,0,0,1-1.21-.25c-.4-.11-.79-.24-1.16-.38a7.6,7.6,0,0,1-1-.51L7.49,71.5a8.61,8.61,0,0,0,1.08.58,7.9,7.9,0,0,0,1.08.4,4.26,4.26,0,0,0,1.23.18,1.21,1.21,0,0,0,.66-.13.38.38,0,0,0,.18-.33.48.48,0,0,0-.18-.38,1.68,1.68,0,0,0-.52-.28,6.19,6.19,0,0,0-.75-.23c-.28-.08-.58-.18-.9-.29a8.65,8.65,0,0,1-1.2-.51,3.21,3.21,0,0,1-.83-.62,2.37,2.37,0,0,1-.49-.8,3.22,3.22,0,0,1-.15-1A3.61,3.61,0,0,1,7,66.52a3.11,3.11,0,0,1,.87-1.12,3.86,3.86,0,0,1,1.25-.67,4.66,4.66,0,0,1,1.5-.23,5.35,5.35,0,0,1,1.13.11,9.16,9.16,0,0,1,1.06.28c.34.12.66.24,1,.37l.8.38Z" transform="translate(-6.24 -28.01)"/><path class="cls-1" d="M19.78,75.29A5,5,0,0,1,18,75a3.79,3.79,0,0,1-1.34-.87,3.73,3.73,0,0,1-.83-1.26,4,4,0,0,1-.28-1.51,4.76,4.76,0,0,1,.27-1.6,3.73,3.73,0,0,1,.82-1.32,3.86,3.86,0,0,1,1.34-.9,4.63,4.63,0,0,1,1.85-.34,4.61,4.61,0,0,1,1.84.34A3.92,3.92,0,0,1,23,68.4a3.62,3.62,0,0,1,.81,1.29,4.24,4.24,0,0,1,.28,1.54c0,.15,0,.3,0,.45s0,.29-.06.41H18.5A1.08,1.08,0,0,0,19,73a1.58,1.58,0,0,0,.91.28,1.89,1.89,0,0,0,.87-.21,1.05,1.05,0,0,0,.54-.58l2.39.68a3.64,3.64,0,0,1-1.46,1.53,4.61,4.61,0,0,1-2.43.6M21,70.4a1.41,1.41,0,0,0-.42-.89,1.33,1.33,0,0,0-1.75,0,1.41,1.41,0,0,0-.42.89Z" transform="translate(-6.24 -28.01)"/><path class="cls-1" d="M30.3,69.73a5.66,5.66,0,0,0-1.48.18,1.86,1.86,0,0,0-1,.59v4.64H25V67.32h2.58v1.49a3.2,3.2,0,0,1,1-1.21A2.24,2.24,0,0,1,30,67.17a2.18,2.18,0,0,1,.35,0Z" transform="translate(-6.24 -28.01)"/><path class="cls-1" d="M31.19,64.29H34v2.38H31.19Zm0,3H34v7.82H31.19Z" transform="translate(-6.24 -28.01)"/><path class="cls-1" d="M37.75,75.29a3.24,3.24,0,0,1-1.09-.19,2.94,2.94,0,0,1-.87-.53,2.54,2.54,0,0,1-.57-.8,2.34,2.34,0,0,1-.21-1,2.46,2.46,0,0,1,.25-1.09,2.84,2.84,0,0,1,.7-.85A3.49,3.49,0,0,1,37,70.29a4.8,4.8,0,0,1,1.36-.19,3.6,3.6,0,0,1,1.57.3v-.24a1,1,0,0,0-.32-.82,1.64,1.64,0,0,0-1-.26,3.45,3.45,0,0,0-1.23.21,6.57,6.57,0,0,0-1.19.63l-.82-1.75a6.38,6.38,0,0,1,3.52-1,4.42,4.42,0,0,1,2.89.84,3,3,0,0,1,1,2.49V72a.88.88,0,0,0,.14.56.86.86,0,0,0,.54.18v2.38a7.21,7.21,0,0,1-.73.11,4.66,4.66,0,0,1-.61,0A2,2,0,0,1,41,75a1.27,1.27,0,0,1-.51-.81l-.06-.28a3.53,3.53,0,0,1-1.21,1,3.17,3.17,0,0,1-1.45.35m.85-2a1.86,1.86,0,0,0,.51-.08,2.12,2.12,0,0,0,.48-.22,1.34,1.34,0,0,0,.27-.26.46.46,0,0,0,.1-.29v-.58a4,4,0,0,0-.55-.15,2.69,2.69,0,0,0-.53-.06,1.43,1.43,0,0,0-.87.26.77.77,0,0,0-.34.63.67.67,0,0,0,.26.54,1.05,1.05,0,0,0,.67.21" transform="translate(-6.24 -28.01)"/><path class="cls-1" d="M52.28,75.14H49.46v-4.4a1.16,1.16,0,0,0-.26-.84.83.83,0,0,0-.6-.26,1.25,1.25,0,0,0-.76.31,1.78,1.78,0,0,0-.59.81v4.38H44.42V67.32H47v1.16a2.67,2.67,0,0,1,1.17-1,4.22,4.22,0,0,1,1.78-.34,2.46,2.46,0,0,1,1.27.29,2.12,2.12,0,0,1,.71.72,2.78,2.78,0,0,1,.32.93,5.78,5.78,0,0,1,.07.89Z" transform="translate(-6.24 -28.01)"/><path class="cls-1" d="M56,75.29a2.26,2.26,0,0,1-1.81-.72,3.11,3.11,0,0,1-.63-2.11V67.32h2.83v4.51a1.21,1.21,0,0,0,.23.8.75.75,0,0,0,.63.28,1.66,1.66,0,0,0,.67-.15,1.85,1.85,0,0,0,.68-.65V67.32h2.82V72a.82.82,0,0,0,.15.56.86.86,0,0,0,.54.18v2.38c-.29,0-.54.09-.76.11a4.24,4.24,0,0,1-.58,0c-1,0-1.52-.36-1.66-1.09l-.06-.28a3.19,3.19,0,0,1-1.31,1,4.54,4.54,0,0,1-1.74.32" transform="translate(-6.24 -28.01)"/><path class="cls-1" d="M6.37,90a5.46,5.46,0,0,1,.35-1.9,5.13,5.13,0,0,1,1-1.68,4.92,4.92,0,0,1,1.6-1.2,4.82,4.82,0,0,1,2.15-.46,4.75,4.75,0,0,1,2.47.63A4,4,0,0,1,15.5,87.1l-2.22,1.57a1.8,1.8,0,0,0-.34-.63,2.19,2.19,0,0,0-.47-.41,2.06,2.06,0,0,0-.54-.2,2.52,2.52,0,0,0-.52-.06,1.75,1.75,0,0,0-.94.24,2.24,2.24,0,0,0-.66.64,2.85,2.85,0,0,0-.38.89,4.17,4.17,0,0,0-.11,1,3.72,3.72,0,0,0,.14,1.06,2.9,2.9,0,0,0,.41.89,2.32,2.32,0,0,0,.67.62,1.77,1.77,0,0,0,.9.23,2.4,2.4,0,0,0,.52-.07,1.92,1.92,0,0,0,.51-.22,1.75,1.75,0,0,0,.45-.41,1.9,1.9,0,0,0,.32-.6L15.6,93a3,3,0,0,1-.67,1,4.43,4.43,0,0,1-1,.78,4.68,4.68,0,0,1-1.23.47,5.24,5.24,0,0,1-1.28.17,4.42,4.42,0,0,1-2-.47,5.18,5.18,0,0,1-1.58-1.24,6,6,0,0,1-1-1.76,5.7,5.7,0,0,1-.37-2" transform="translate(-6.24 -28.01)"/><polygon class="cls-1" points="12.29 56.84 14.36 63.76 16.39 56.84 19.44 56.84 15.56 67.4 13.15 67.4 9.23 56.84 12.29 56.84"/><polygon class="cls-1" points="27.75 64.87 27.75 67.4 20.23 67.4 20.23 56.84 27.61 56.84 27.61 59.37 23.13 59.37 23.13 60.86 26.96 60.86 26.96 63.21 23.13 63.21 23.13 64.87 27.75 64.87"/><path class="cls-1" d="M42.07,94.84a4.81,4.81,0,0,1-2.42.64A4.68,4.68,0,0,1,37.59,95,5,5,0,0,1,36,93.83a5.64,5.64,0,0,1-1-1.72,5.52,5.52,0,0,1,0-4,5.58,5.58,0,0,1,1.06-1.71,5.28,5.28,0,0,1,1.62-1.18,4.76,4.76,0,0,1,2-.44,4.55,4.55,0,0,1,2.06.47,5.07,5.07,0,0,1,1.59,1.23,5.52,5.52,0,0,1,1,1.72,5.58,5.58,0,0,1,.35,2,5.38,5.38,0,0,1-.3,1.79,5.73,5.73,0,0,1-.85,1.58l1.72,1.86H42.59Zm-2.39-1.93a2.24,2.24,0,0,0,.55-.07L38.49,91H41.2l.4.43a3.12,3.12,0,0,0,.15-.62,4.58,4.58,0,0,0,0-.64,4,4,0,0,0-.13-1,2.83,2.83,0,0,0-.4-.88,2,2,0,0,0-.66-.62,1.89,1.89,0,0,0-.93-.23,1.7,1.7,0,0,0-1,.25,2,2,0,0,0-.65.64,2.87,2.87,0,0,0-.39.89,4.32,4.32,0,0,0-.13,1,4.4,4.4,0,0,0,.13,1,2.94,2.94,0,0,0,.39.88,2.08,2.08,0,0,0,.67.62,1.9,1.9,0,0,0,.94.23" transform="translate(-6.24 -28.01)"/><path class="cls-1" d="M50.62,86.61H49.21v2.84H47.42V86.61H46V84.82h4.61ZM55,84.86h2.71v4.59H56v-2.4l-.72,1.77H53.8l-.71-1.77v2.4H51.3V84.86H54l.52,1.94Z" transform="translate(-6.24 -28.01)"/><polygon class="cls-1" points="56.69 67.4 56.69 56.84 63.92 56.84 63.92 59.37 59.59 59.37 59.59 61.13 63.12 61.13 63.12 63.47 59.59 63.47 59.59 67.4 56.69 67.4"/><path class="cls-1" d="M76.15,90a5.66,5.66,0,0,0-1.48.18,1.8,1.8,0,0,0-1,.59v4.64H70.85V87.59h2.58v1.49a3.41,3.41,0,0,1,1-1.22,2.3,2.3,0,0,1,1.33-.42,2.08,2.08,0,0,1,.35,0Z" transform="translate(-6.24 -28.01)"/><path class="cls-1" d="M79.25,95.56a3,3,0,0,1-1.09-.2,2.69,2.69,0,0,1-.87-.52,2.54,2.54,0,0,1-.57-.8,2.39,2.39,0,0,1-.21-1A2.32,2.32,0,0,1,76.76,92a2.59,2.59,0,0,1,.7-.85,3.23,3.23,0,0,1,1.06-.55,4.56,4.56,0,0,1,1.36-.19,3.65,3.65,0,0,1,1.58.3v-.24a1,1,0,0,0-.32-.82,1.59,1.59,0,0,0-1-.27,3.55,3.55,0,0,0-1.24.22,6,6,0,0,0-1.19.63l-.81-1.75a6.3,6.3,0,0,1,3.52-1,4.43,4.43,0,0,1,2.88.83,3,3,0,0,1,1,2.5v1.52a.79.79,0,0,0,.15.55A.8.8,0,0,0,85,93v2.38c-.26,0-.5.08-.73.11s-.43,0-.61,0a2,2,0,0,1-1.15-.28,1.24,1.24,0,0,1-.51-.81l-.06-.28a3.77,3.77,0,0,1-1.21,1,3.17,3.17,0,0,1-1.45.35m.84-2a1.63,1.63,0,0,0,.52-.09,1.75,1.75,0,0,0,.48-.21,1.34,1.34,0,0,0,.27-.26.56.56,0,0,0,.1-.29v-.58a4,4,0,0,0-.55-.15,2.77,2.77,0,0,0-.53-.06,1.42,1.42,0,0,0-.87.25.76.76,0,0,0-.34.64.67.67,0,0,0,.26.54,1,1,0,0,0,.66.21" transform="translate(-6.24 -28.01)"/><path class="cls-1" d="M98.52,95.41H95.7V91a1.26,1.26,0,0,0-.23-.84.74.74,0,0,0-.56-.26,1.13,1.13,0,0,0-.72.31,1.91,1.91,0,0,0-.56.8v4.39H90.81V91a1.26,1.26,0,0,0-.23-.84.73.73,0,0,0-.56-.26,1.13,1.13,0,0,0-.72.31,1.91,1.91,0,0,0-.56.8v4.39H85.92V87.59h2.54v1.16a2.63,2.63,0,0,1,1.14-1,4,4,0,0,1,1.73-.34,2.93,2.93,0,0,1,.83.11,2.25,2.25,0,0,1,.62.31,1.66,1.66,0,0,1,.41.43,2.13,2.13,0,0,1,.25.5,2.89,2.89,0,0,1,1.14-1,3.6,3.6,0,0,1,1.64-.36,2.27,2.27,0,0,1,1.22.29,1.93,1.93,0,0,1,.7.72,3,3,0,0,1,.31.92,6,6,0,0,1,.07.9Z" transform="translate(-6.24 -28.01)"/><path class="cls-1" d="M103.74,95.56a5,5,0,0,1-1.83-.32,4.09,4.09,0,0,1-1.34-.87,3.68,3.68,0,0,1-.83-1.27,4,4,0,0,1-.28-1.5,4.72,4.72,0,0,1,.27-1.6,3.86,3.86,0,0,1,.82-1.33,4,4,0,0,1,1.34-.89,5.18,5.18,0,0,1,3.69,0,3.92,3.92,0,0,1,1.35.89,3.79,3.79,0,0,1,.82,1.29A4.42,4.42,0,0,1,108,91.5c0,.15,0,.3,0,.45s0,.29,0,.41h-5.49a1.08,1.08,0,0,0,.46.9,1.65,1.65,0,0,0,.91.28,1.86,1.86,0,0,0,.87-.21,1.08,1.08,0,0,0,.54-.58l2.39.68A3.64,3.64,0,0,1,106.17,95a4.61,4.61,0,0,1-2.43.6M105,90.67a1.46,1.46,0,0,0-.42-.9,1.36,1.36,0,0,0-1.75,0,1.46,1.46,0,0,0-.42.9Z" transform="translate(-6.24 -28.01)"/><polygon class="cls-1" points="112.08 59.58 114.74 59.58 111.55 67.4 109.24 67.4 108.19 64.42 107.13 67.4 104.83 67.4 101.63 59.58 104.29 59.58 106.18 64.83 106.67 63.15 105.27 59.58 107.52 59.58 108.19 61.87 108.86 59.58 111.1 59.58 109.7 63.15 110.19 64.83 112.08 59.58"/><path class="cls-1" d="M125.14,95.56a4.81,4.81,0,0,1-1.85-.34,4.08,4.08,0,0,1-1.34-.89,3.62,3.62,0,0,1-.81-1.29,4.37,4.37,0,0,1,0-3.08,3.62,3.62,0,0,1,.81-1.29,4.08,4.08,0,0,1,1.34-.89,4.63,4.63,0,0,1,1.85-.34,4.58,4.58,0,0,1,1.84.34,3.92,3.92,0,0,1,1.35.89,3.79,3.79,0,0,1,.82,1.29,4.53,4.53,0,0,1,0,3.08,3.79,3.79,0,0,1-.82,1.29,3.92,3.92,0,0,1-1.35.89,4.75,4.75,0,0,1-1.84.34m-1.38-4.06a1.81,1.81,0,0,0,.39,1.23,1.24,1.24,0,0,0,1,.45,1.26,1.26,0,0,0,1-.45,1.81,1.81,0,0,0,.38-1.23,1.78,1.78,0,0,0-.38-1.23,1.26,1.26,0,0,0-1-.45,1.24,1.24,0,0,0-1,.45,1.78,1.78,0,0,0-.39,1.23" transform="translate(-6.24 -28.01)"/><path class="cls-1" d="M135.72,90a5.66,5.66,0,0,0-1.48.18,1.8,1.8,0,0,0-1,.59v4.64h-2.82V87.59H133v1.49a3.41,3.41,0,0,1,1-1.22,2.3,2.3,0,0,1,1.33-.42,2.08,2.08,0,0,1,.35,0Z" transform="translate(-6.24 -28.01)"/><polygon class="cls-1" points="135.53 67.4 133.77 64.54 133.2 65.17 133.2 67.4 130.38 67.4 130.38 56.55 133.2 56.55 133.2 62.48 135.28 59.58 138.25 59.58 135.56 63 138.52 67.4 135.53 67.4"/><rect class="cls-2" x="64.99" y="24.73" width="50.21" height="1.7"/><rect class="cls-2" x="101.72" y="3.58" width="1.7" height="44.78"/><rect class="cls-2" x="76.27" y="3.58" width="1.7" height="44.78"/><rect class="cls-2" x="95.25" y="28.24" width="1.7" height="51.06" transform="translate(-20.25 26.71) rotate(-29.72)"/><rect class="cls-2" x="70.6" y="52.93" width="50.86" height="1.7" transform="translate(-4.19 83.05) rotate(-60.62)"/><rect class="cls-2" x="68.2" y="41.82" width="43.33" height="1.7" transform="translate(-15.45 23.66) rotate(-30.59)"/><rect class="cls-2" x="101.42" y="20.9" width="1.7" height="43.51" transform="translate(7.3 81.03) rotate(-59.44)"/><rect class="cls-2" x="89.12" y="43.1" width="1.7" height="43.7" transform="translate(-18.22 80.74) rotate(-59.08)"/><rect class="cls-2" x="80.36" y="64.09" width="43.75" height="1.7" transform="translate(-25.08 33.64) rotate(-30.87)"/><path class="cls-2" d="M108.91,77.42H83.44A1.7,1.7,0,0,1,82,76.57L69.23,54.51a1.69,1.69,0,0,1,0-1.71L82,30.74a1.7,1.7,0,0,1,1.47-.85h25.47a1.72,1.72,0,0,1,1.48.85L123.13,52.8a1.74,1.74,0,0,1,0,1.71L110.39,76.57a1.72,1.72,0,0,1-1.48.85M84.42,74h23.51l11.75-20.36L107.93,33.3H84.42L72.67,53.65Z" transform="translate(-6.24 -28.01)"/><path class="cls-2" d="M86.94,31.59a3.59,3.59,0,1,0-3.58,3.59,3.58,3.58,0,0,0,3.58-3.59" transform="translate(-6.24 -28.01)"/><path class="cls-2" d="M112.4,31.59a3.59,3.59,0,1,0-3.58,3.59,3.58,3.58,0,0,0,3.58-3.59" transform="translate(-6.24 -28.01)"/><path class="cls-2" d="M125.13,53.59a3.59,3.59,0,1,0-3.59,3.59,3.58,3.58,0,0,0,3.59-3.59" transform="translate(-6.24 -28.01)"/><path class="cls-2" d="M99.67,53.59a3.59,3.59,0,1,0-3.58,3.59,3.58,3.58,0,0,0,3.58-3.59" transform="translate(-6.24 -28.01)"/><path class="cls-2" d="M112.4,75.76a3.59,3.59,0,1,0-3.58,3.58,3.58,3.58,0,0,0,3.58-3.58" transform="translate(-6.24 -28.01)"/><path class="cls-2" d="M86.94,75.76a3.59,3.59,0,1,0-3.58,3.58,3.58,3.58,0,0,0,3.58-3.58" transform="translate(-6.24 -28.01)"/><path class="cls-2" d="M74.22,53.59a3.59,3.59,0,1,0-3.59,3.59,3.58,3.58,0,0,0,3.59-3.59" transform="translate(-6.24 -28.01)"/></svg>